<mxfile host="app.diagrams.net" modified="2021-05-16T03:24:10.848Z" agent="5.0 (Windows NT 10.0; Win64; x64) AppleWebKit/537.36 (KHTML, like Gecko) Chrome/90.0.4430.93 Safari/537.36" etag="Qb7J7cfsFrmOuH1UtEfY" version="14.6.9" type="github" pages="2">
  <diagram id="_9SRqA-9XYTzpuE4ERGH" name="Cache">
    <mxGraphModel dx="968" dy="551" grid="1" gridSize="10" guides="1" tooltips="1" connect="1" arrows="1" fold="1" page="1" pageScale="1" pageWidth="850" pageHeight="1100" math="0" shadow="0">
      <root>
        <mxCell id="0" />
        <mxCell id="1" parent="0" />
        <mxCell id="D7m23AtETstgwqexV8Tc-2" value="" style="shape=image;verticalLabelPosition=bottom;verticalAlign=top;imageAspect=0;aspect=fixed;image=data:image/svg+xml,PHN2ZyB4bWxucz0iaHR0cDovL3d3dy53My5vcmcvMjAwMC9zdmciIHZpZXdCb3g9IjAgMCAxOCAxOCI+PGRlZnM+PGxpbmVhckdyYWRpZW50IGlkPSJhIiB4MT0iOSIgeTE9IjEwLjMiIHgyPSI5IiB5Mj0iMTMuMiIgZ3JhZGllbnRVbml0cz0idXNlclNwYWNlT25Vc2UiPjxzdG9wIG9mZnNldD0iMCIgc3RvcC1jb2xvcj0iIzAwNWJhMSIvPjxzdG9wIG9mZnNldD0iLjI2IiBzdG9wLWNvbG9yPSIjMDA1ODlkIi8+PHN0b3Agb2Zmc2V0PSIuNTMiIHN0b3AtY29sb3I9IiMwMDRmOTAiLz48c3RvcCBvZmZzZXQ9Ii44IiBzdG9wLWNvbG9yPSIjMDAzZjdjIi8+PHN0b3Agb2Zmc2V0PSIxIiBzdG9wLWNvbG9yPSIjMDAzMDY3Ii8+PC9saW5lYXJHcmFkaWVudD48L2RlZnM+PHBhdGggZmlsbD0iIzUwZTZmZiIgZD0iTTEzLjM5IDcuNGgtLjAxdi0uMDJoLS4wMkw5IDQuNDEgNC42MyA3LjM4aC0uMDJ2NS44Mmg4Ljc3VjcuNGguMDF6Ii8+PHBhdGggZD0iTTQuNjEgNy40djUuOEw5IDEwLjN6IiBmaWxsPSIjMzJiZWRkIi8+PHBhdGggZD0iTTEzLjM4IDcuNEw5IDEwLjNsNC4zOCAyLjl6IiBmaWxsPSIjMTk4YWIzIi8+PHBhdGggZmlsbD0idXJsKCNhKSIgZD0iTTguOTkgMTAuM2wtNC4zOCAyLjg5di4wMWg4Ljc3di0uMDFMOC45OSAxMC4zeiIvPjxnIGZpbGw9IiM5OTkiPjxwYXRoIGQ9Ik0xLjA3IDEuNDNoMS4yOVY1YS4yOS4yOSAwIDAxLS4yOS4yOUguNzlBLjI5LjI5IDAgMDEuNSA1VjJhLjU3LjU3IDAgMDEuNTctLjU3eiIvPjxwYXRoIGQ9Ik0xLjA3IDEuNDNoMS4yOVY1YS4yOS4yOSAwIDAxLS4yOS4yOUguNzlBLjI5LjI5IDAgMDEuNSA1VjJhLjU3LjU3IDAgMDEuNTctLjU3eiIgb3BhY2l0eT0iLjUiLz48L2c+PGcgZmlsbD0iIzk5OSI+PHBhdGggZD0iTTE1LjY0IDEuNDNoMS4yOWEuNTcuNTcgMCAwMS41Ny41N3YzYS4yOS4yOSAwIDAxLS4yOS4yOWgtMS4yOWEuMjkuMjkgMCAwMS0uMjgtLjI5VjEuNDN6Ii8+PHBhdGggZD0iTTE1LjY0IDEuNDNoMS4yOWEuNTcuNTcgMCAwMS41Ny41N3YzYS4yOS4yOSAwIDAxLS4yOS4yOWgtMS4yOWEuMjkuMjkgMCAwMS0uMjgtLjI5VjEuNDN6IiBvcGFjaXR5PSIuNSIvPjwvZz48cGF0aCBkPSJNMTcuNSAydjEuMjVILjVWMmEuNTcuNTcgMCAwMS41Ny0uNTdoMTUuODdhLjU3LjU3IDAgMDEuNTYuNTd6IiBmaWxsPSIjOTQ5NDk0Ii8+PGcgZmlsbD0iIzk5OSI+PHBhdGggZD0iTS43OSAxMi42OGgxLjI5YS4yOS4yOSAwIDAxLjI5LjI5djMuNmgtMS4zQS41Ny41NyAwIDAxLjUgMTZ2LTNhLjI5LjI5IDAgMDEuMjktLjMyeiIvPjxwYXRoIGQ9Ik0uNzkgMTIuNjhoMS4yOWEuMjkuMjkgMCAwMS4yOS4yOXYzLjZoLTEuM0EuNTcuNTcgMCAwMS41IDE2di0zYS4yOS4yOSAwIDAxLjI5LS4zMnoiIG9wYWNpdHk9Ii41Ii8+PC9nPjxnIGZpbGw9IiM5OTkiPjxwYXRoIGQ9Ik0xNS45MiAxMi42OGgxLjI5YS4yOS4yOSAwIDAxLjI5LjI5djNhLjU3LjU3IDAgMDEtLjU3LjU3aC0xLjI5VjEzYS4yOS4yOSAwIDAxLjI4LS4zMnoiLz48cGF0aCBkPSJNMTUuOTIgMTIuNjhoMS4yOWEuMjkuMjkgMCAwMS4yOS4yOXYzYS41Ny41NyAwIDAxLS41Ny41N2gtMS4yOVYxM2EuMjkuMjkgMCAwMS4yOC0uMzJ6IiBvcGFjaXR5PSIuNSIvPjwvZz48cGF0aCBkPSJNLjUgMTZ2LTEuMjVoMTdWMTZhLjU3LjU3IDAgMDEtLjU3LjU3SDEuMDdBLjU3LjU3IDAgMDEuNSAxNnoiIGZpbGw9IiM5NDk0OTQiLz48L3N2Zz4=" parent="1" vertex="1">
          <mxGeometry x="430" y="198" width="70" height="70" as="geometry" />
        </mxCell>
        <mxCell id="D7m23AtETstgwqexV8Tc-13" style="edgeStyle=orthogonalEdgeStyle;rounded=0;orthogonalLoop=1;jettySize=auto;html=1;exitX=1;exitY=0.5;exitDx=0;exitDy=0;entryX=0;entryY=0.5;entryDx=0;entryDy=0;" parent="1" source="D7m23AtETstgwqexV8Tc-3" target="D7m23AtETstgwqexV8Tc-5" edge="1">
          <mxGeometry relative="1" as="geometry" />
        </mxCell>
        <mxCell id="D7m23AtETstgwqexV8Tc-15" style="edgeStyle=orthogonalEdgeStyle;rounded=0;orthogonalLoop=1;jettySize=auto;html=1;exitX=0.5;exitY=1;exitDx=0;exitDy=0;" parent="1" source="D7m23AtETstgwqexV8Tc-5" target="D7m23AtETstgwqexV8Tc-11" edge="1">
          <mxGeometry relative="1" as="geometry" />
        </mxCell>
        <mxCell id="D7m23AtETstgwqexV8Tc-3" value="" style="shape=image;verticalLabelPosition=bottom;verticalAlign=top;imageAspect=0;aspect=fixed;image=data:image/svg+xml,PHN2ZyB4bWxucz0iaHR0cDovL3d3dy53My5vcmcvMjAwMC9zdmciIHZlcnNpb249IjEuMSIgaWQ9ImI3MGFjZjBhLTM0YjQtNGJkZi05MDI0LTc0OTYwNDNmZjkxNSIgeD0iMCIgeT0iMCIgdmlld0JveD0iMCAwIDE4IDE4IiB4bWw6c3BhY2U9InByZXNlcnZlIj48c3R5bGU+LnN0MntlbmFibGUtYmFja2dyb3VuZDpuZXc7b3BhY2l0eTouNTU7ZmlsbDojZjJmMmYyfTwvc3R5bGU+PHJhZGlhbEdyYWRpZW50IGlkPSJlZTc1ZGQwNi0xYWNhLTRmNzYtOWQxMS1kMDVhMjg0MDIwYWRfMV8iIGN4PSIxNzI0Mi40MDQiIGN5PSItNTYxOC4xOTMiIHI9IjU2LjcwNiIgZ3JhZGllbnRUcmFuc2Zvcm09Im1hdHJpeCguMTUgMCAwIC0uMTUgLTI1NzcuMzggLTgzMy43MykiIGdyYWRpZW50VW5pdHM9InVzZXJTcGFjZU9uVXNlIj48c3RvcCBvZmZzZXQ9Ii4xOCIgc3RvcC1jb2xvcj0iIzVlYTBlZiIvPjxzdG9wIG9mZnNldD0iMSIgc3RvcC1jb2xvcj0iIzAwNzhkNCIvPjwvcmFkaWFsR3JhZGllbnQ+PHBhdGggaWQ9ImVlNzVkZDA2LTFhY2EtNGY3Ni05ZDExLWQwNWEyODQwMjBhZCIgZD0iTTE0LjIgMTUuN2MtMy43IDIuOS05LjEgMi4yLTExLjktMS41Uy4xIDUuMiAzLjggMi4zbC4xLS4xQzcuNy0uNiAxMyAuMiAxNS44IDMuOWMyLjcgMy43IDIgOS0xLjYgMTEuOCIgZmlsbD0idXJsKCNlZTc1ZGQwNi0xYWNhLTRmNzYtOWQxMS1kMDVhMjg0MDIwYWRfMV8pIi8+PHBhdGggZD0iTTYuNyA3LjJjMi40LTIuMyA1LjYtMy42IDguOS0zLjYtLjQtLjUtLjktMS0xLjUtMS40LTEuNi4xLTMuMi41LTQuNyAxLjEtMS41LjctMi45IDEuNi00LjEgMi44LjYuMiAxLjEuNiAxLjQgMS4xem0tNC4yIDMuNGMtLjMuOS0uNiAxLjctLjggMi42bC42LjljLjIuMi4zLjQuNS42LjItMS4yLjYtMi40IDEuMS0zLjUtLjUuMS0xLS4yLTEuNC0uNnoiIG9wYWNpdHk9Ii42IiBmaWxsPSIjZmZmIi8+PHBhdGggY2xhc3M9InN0MiIgZD0iTTMuNSA2LjFjLS40LS45LS42LTEuOS0uNy0yLjktLjQuNC0uOC45LTEuMSAxLjQuMS44LjMgMS42LjUgMi40LjQtLjQuOC0uNyAxLjMtLjl6Ii8+PGxpbmVhckdyYWRpZW50IGlkPSJTVkdJRF8xXyIgZ3JhZGllbnRVbml0cz0idXNlclNwYWNlT25Vc2UiIHgxPSI0LjQwMSIgeTE9IjguNTIiIHgyPSI0LjM3MSIgeTI9IjEyLjQ3IiBncmFkaWVudFRyYW5zZm9ybT0ibWF0cml4KDEgMCAwIC0xIDAgMjApIj48c3RvcCBvZmZzZXQ9IjAiIHN0b3AtY29sb3I9IiNjY2MiLz48c3RvcCBvZmZzZXQ9IjEiIHN0b3AtY29sb3I9IiNmY2ZjZmMiLz48L2xpbmVhckdyYWRpZW50PjxjaXJjbGUgY3g9IjQuNCIgY3k9IjguNyIgcj0iMi43IiBmaWxsPSJ1cmwoI1NWR0lEXzFfKSIvPjxwYXRoIGNsYXNzPSJzdDIiIGQ9Ik04LjQgMTMuN2MwLS41LjItLjkuNS0xLjMtLjktLjUtMS44LTEuMS0yLjUtMS45LS40LjUtLjkuOC0xLjUuOS41LjUuOS45IDEuNCAxLjMuNi41IDEuMy45IDIuMSAxLjN2LS4zem02LjMuMmMtLjkgMC0xLjktLjEtMi44LS4zdi4xYzAgLjUtLjIuOS0uNSAxLjIgMS4xLjIgMi4zLjMgMy40LjIuNC0uNC44LS45IDEuMi0xLjMtLjQuMS0uOS4xLTEuMy4xeiIvPjxsaW5lYXJHcmFkaWVudCBpZD0iU1ZHSURfMl8iIGdyYWRpZW50VW5pdHM9InVzZXJTcGFjZU9uVXNlIiB4MT0iMTAuMTMiIHkxPSI0LjU1IiB4Mj0iMTAuMTMiIHkyPSI4LjEiIGdyYWRpZW50VHJhbnNmb3JtPSJtYXRyaXgoMSAwIDAgLTEgMCAyMCkiPjxzdG9wIG9mZnNldD0iMCIgc3RvcC1jb2xvcj0iI2NjYyIvPjxzdG9wIG9mZnNldD0iMSIgc3RvcC1jb2xvcj0iI2ZjZmNmYyIvPjwvbGluZWFyR3JhZGllbnQ+PGNpcmNsZSBjeD0iMTAuMSIgY3k9IjEzLjciIHI9IjEuOCIgZmlsbD0idXJsKCNTVkdJRF8yXykiLz48cGF0aCBkPSJNMTIuMyA4LjljLjEtLjQuMy0uNy42LTEtMS42LTEuMi0zLjEtMi42LTQuNS00LjFDNy43IDIuOSA3IDEuOSA2LjUuOWMtLjQuMS0uOC4yLTEuMS40LjYgMS4xIDEuMyAyLjIgMi4xIDMuMiAxLjQgMS42IDMgMy4xIDQuOCA0LjR6IiBvcGFjaXR5PSIuNyIgZmlsbD0iI2YyZjJmMiIvPjxsaW5lYXJHcmFkaWVudCBpZD0iU1ZHSURfM18iIGdyYWRpZW50VW5pdHM9InVzZXJTcGFjZU9uVXNlIiB4MT0iMTQuMTgiIHkxPSI4Ljg1IiB4Mj0iMTQuMTgiIHkyPSIxMi42MiIgZ3JhZGllbnRUcmFuc2Zvcm09Im1hdHJpeCgxIDAgMCAtMSAwIDIwKSI+PHN0b3Agb2Zmc2V0PSIwIiBzdG9wLWNvbG9yPSIjY2NjIi8+PHN0b3Agb2Zmc2V0PSIxIiBzdG9wLWNvbG9yPSIjZmNmY2ZjIi8+PC9saW5lYXJHcmFkaWVudD48Y2lyY2xlIGN4PSIxNC4yIiBjeT0iOS4zIiByPSIxLjkiIGZpbGw9InVybCgjU1ZHSURfM18pIi8+PHBhdGggY2xhc3M9InN0MiIgZD0iTTE3LjQgMTAuNWwtLjQtLjEtLjMtLjJoLS4xbC0uMi0uMmgtLjFsLS4zLS4yYy0uMS40LS4zLjctLjYuOS4xLjEuMy4xLjQuMmwuMS4xLjQuMi45LjRjMC0uMyAwLS43LjItMS4xeiIvPjxsaW5lYXJHcmFkaWVudCBpZD0iU1ZHSURfNF8iIGdyYWRpZW50VW5pdHM9InVzZXJTcGFjZU9uVXNlIiB4MT0iNC40MDEiIHkxPSI4LjUyIiB4Mj0iNC4zNzEiIHkyPSIxMi40NyIgZ3JhZGllbnRUcmFuc2Zvcm09Im1hdHJpeCgxIDAgMCAtMSAwIDIwKSI+PHN0b3Agb2Zmc2V0PSIwIiBzdG9wLWNvbG9yPSIjY2NjIi8+PHN0b3Agb2Zmc2V0PSIxIiBzdG9wLWNvbG9yPSIjZmNmY2ZjIi8+PC9saW5lYXJHcmFkaWVudD48Y2lyY2xlIGN4PSI0LjQiIGN5PSI4LjciIHI9IjIuNyIgZmlsbD0idXJsKCNTVkdJRF80XykiLz48bGluZWFyR3JhZGllbnQgaWQ9IlNWR0lEXzVfIiBncmFkaWVudFVuaXRzPSJ1c2VyU3BhY2VPblVzZSIgeDE9IjEwLjEzIiB5MT0iNC41NSIgeDI9IjEwLjEzIiB5Mj0iOC4xIiBncmFkaWVudFRyYW5zZm9ybT0ibWF0cml4KDEgMCAwIC0xIDAgMjApIj48c3RvcCBvZmZzZXQ9IjAiIHN0b3AtY29sb3I9IiNjY2MiLz48c3RvcCBvZmZzZXQ9IjEiIHN0b3AtY29sb3I9IiNmY2ZjZmMiLz48L2xpbmVhckdyYWRpZW50PjxjaXJjbGUgY3g9IjEwLjEiIGN5PSIxMy43IiByPSIxLjgiIGZpbGw9InVybCgjU1ZHSURfNV8pIi8+PC9zdmc+" parent="1" vertex="1">
          <mxGeometry x="70" y="350" width="70" height="70" as="geometry" />
        </mxCell>
        <mxCell id="D7m23AtETstgwqexV8Tc-4" value="" style="shape=image;verticalLabelPosition=bottom;verticalAlign=top;imageAspect=0;aspect=fixed;image=data:image/svg+xml,PHN2ZyB4bWxucz0iaHR0cDovL3d3dy53My5vcmcvMjAwMC9zdmciIHZpZXdCb3g9IjAgMCAxOCAxOCI+PGRlZnM+PGxpbmVhckdyYWRpZW50IGlkPSJhIiB4MT0iLTE3NS45OTMiIHkxPSItMzQzLjcyMyIgeDI9Ii0xNzUuOTkzIiB5Mj0iLTM1OS4yMzIiIGdyYWRpZW50VHJhbnNmb3JtPSJtYXRyaXgoMS4xNTYgMCAwIDEuMDI5IDIxMi41NzMgMzcwLjU0OCkiIGdyYWRpZW50VW5pdHM9InVzZXJTcGFjZU9uVXNlIj48c3RvcCBvZmZzZXQ9IjAiIHN0b3AtY29sb3I9IiNmZWExMWIiLz48c3RvcCBvZmZzZXQ9Ii4yODQiIHN0b3AtY29sb3I9IiNmZWE1MWEiLz48c3RvcCBvZmZzZXQ9Ii41NDciIHN0b3AtY29sb3I9IiNmZWIwMTgiLz48c3RvcCBvZmZzZXQ9Ii44IiBzdG9wLWNvbG9yPSIjZmZjMzE0Ii8+PHN0b3Agb2Zmc2V0PSIxIiBzdG9wLWNvbG9yPSIjZmZkNzBmIi8+PC9saW5lYXJHcmFkaWVudD48L2RlZnM+PHBhdGggZD0iTTUuNTQgMTMuMTA1bC0uNTg2LjU4OGEuMjY3LjI2NyAwIDAxLS4zNzcgMEwuMjIzIDkuMzUzYS41MzMuNTMzIDAgMDEwLS43NTVsLjU4OC0uNTkgNC43MzIgNC43MThhLjI2Ny4yNjcgMCAwMTAgLjM3OHoiIGZpbGw9IiM1MGU2ZmYiLz48cGF0aCBkPSJNNC44NjMgNC4zMDVsLjU5LjU4OGEuMjY3LjI2NyAwIDAxMCAuMzc4TC44MDYgOS45MzJsLS41OS0uNTg5YS41MzMuNTMzIDAgMDEtLjAwMS0uNzU0bDQuMjczLTQuMjg1YS4yNjcuMjY3IDAgMDEuMzc2IDB6IiBmaWxsPSIjMTQ5MGRmIi8+PHBhdGggZD0iTTE3LjE5IDguMDEybC41ODguNTlhLjUzMy41MzMgMCAwMS0uMDAxLjc1NGwtNC4zNTQgNC4zNGEuMjY3LjI2NyAwIDAxLS4zNzcgMGwtLjU4Ni0uNTg3YS4yNjcuMjY3IDAgMDEwLS4zNzdsNC43MzItNC43MTh6IiBmaWxsPSIjNTBlNmZmIi8+PHBhdGggZD0iTTE3Ljc4MiA5LjM0bC0uNTkuNTg5LTQuNjQ4LTQuNjYyYS4yNjcuMjY3IDAgMDEwLS4zNzdsLjU5LS41ODhhLjI2Ny4yNjcgMCAwMS4zNzggMGw0LjI3MyA0LjI4NmEuNTMzLjUzMyAwIDAxMCAuNzUzeiIgZmlsbD0iIzE0OTBkZiIvPjxwYXRoIGQ9Ik04LjQ1OSA5LjlINC44N2EuMTkzLjE5MyAwIDAxLS4yLS4xODEuMTY2LjE2NiAwIDAxLjAxOC0uMDc1TDguOTkxIDEuMTNhLjIwNi4yMDYgMCAwMS4xODYtLjEwNmg0LjI0NWEuMTkzLjE5MyAwIDAxLjIuMTgxLjE2NS4xNjUgMCAwMS0uMDM1LjFMOC41MzQgNy45NjZoNC45MjhhLjE5My4xOTMgMCAwMS4yLjE4MS4xNzYuMTc2IDAgMDEtLjA1Mi4xMjJsLTguMTg5IDguNTE5Yy0uMDc3LjA0Ni0uNjI0LjUtLjM1Ni0uMTg5eiIgZmlsbD0idXJsKCNhKSIvPjwvc3ZnPg==" parent="1" vertex="1">
          <mxGeometry x="440" y="60" width="50" height="50" as="geometry" />
        </mxCell>
        <mxCell id="D7m23AtETstgwqexV8Tc-5" value="" style="shape=image;verticalLabelPosition=bottom;verticalAlign=top;imageAspect=0;aspect=fixed;image=data:image/svg+xml,PHN2ZyB4bWxucz0iaHR0cDovL3d3dy53My5vcmcvMjAwMC9zdmciIHZpZXdCb3g9IjAgMCAxOCAxOCI+PGRlZnM+PGxpbmVhckdyYWRpZW50IGlkPSJhIiB4MT0iOS41IiB5MT0iNy4zNyIgeDI9IjE3LjUiIHkyPSI3LjM3IiBncmFkaWVudFVuaXRzPSJ1c2VyU3BhY2VPblVzZSI+PHN0b3Agb2Zmc2V0PSIwIiBzdG9wLWNvbG9yPSIjMDA1YmExIi8+PHN0b3Agb2Zmc2V0PSIuMDciIHN0b3AtY29sb3I9IiMwMDYwYTkiLz48c3RvcCBvZmZzZXQ9Ii4zNiIgc3RvcC1jb2xvcj0iIzAwNzFjOCIvPjxzdG9wIG9mZnNldD0iLjUyIiBzdG9wLWNvbG9yPSIjMDA3OGQ0Ii8+PHN0b3Agb2Zmc2V0PSIxIiBzdG9wLWNvbG9yPSIjMDA1YmExIi8+PC9saW5lYXJHcmFkaWVudD48bGluZWFyR3JhZGllbnQgaWQ9ImIiIHgxPSIuNSIgeTE9IjcuMzciIHgyPSI4LjUiIHkyPSI3LjM3IiBncmFkaWVudFVuaXRzPSJ1c2VyU3BhY2VPblVzZSI+PHN0b3Agb2Zmc2V0PSIwIiBzdG9wLWNvbG9yPSIjMDA1YmExIi8+PHN0b3Agb2Zmc2V0PSIuMDciIHN0b3AtY29sb3I9IiMwMDYwYTkiLz48c3RvcCBvZmZzZXQ9Ii4zNiIgc3RvcC1jb2xvcj0iIzAwNzFjOCIvPjxzdG9wIG9mZnNldD0iLjUyIiBzdG9wLWNvbG9yPSIjMDA3OGQ0Ii8+PHN0b3Agb2Zmc2V0PSIxIiBzdG9wLWNvbG9yPSIjMDA1YmExIi8+PC9saW5lYXJHcmFkaWVudD48bGluZWFyR3JhZGllbnQgaWQ9ImMiIHgxPSI1IiB5MT0iMTEuOSIgeDI9IjEzIiB5Mj0iMTEuOSIgZ3JhZGllbnRVbml0cz0idXNlclNwYWNlT25Vc2UiPjxzdG9wIG9mZnNldD0iMCIgc3RvcC1jb2xvcj0iIzAwNWJhMSIvPjxzdG9wIG9mZnNldD0iLjA3IiBzdG9wLWNvbG9yPSIjMDA2MGE5Ii8+PHN0b3Agb2Zmc2V0PSIuMzYiIHN0b3AtY29sb3I9IiMwMDcxYzgiLz48c3RvcCBvZmZzZXQ9Ii41MiIgc3RvcC1jb2xvcj0iIzAwNzhkNCIvPjxzdG9wIG9mZnNldD0iMSIgc3RvcC1jb2xvcj0iIzAwNWJhMSIvPjwvbGluZWFyR3JhZGllbnQ+PC9kZWZzPjxwYXRoIGQ9Ik0xMy41IDQuNjJjLTIuMjEgMC00LS41Ny00LTEuMjh2Ni43OWMwIC42OSAxLjc2IDEuMjYgMy45NSAxLjI3aC4wNWMyLjIxIDAgNC0uNTcgNC0xLjI3VjMuMzRjMCAuNzEtMS43OSAxLjI4LTQgMS4yOHoiIGZpbGw9InVybCgjYSkiLz48cGF0aCBkPSJNMTcuNSAzLjM0YzAgLjcxLTEuNzkgMS4yOC00IDEuMjhzLTQtLjU3LTQtMS4yOCAxLjc5LTEuMjcgNC0xLjI3IDQgLjU3IDQgMS4yNyIgZmlsbD0iI2U4ZThlOCIvPjxwYXRoIGQ9Ik0xNi41NyAzLjI0YzAgLjQ1LTEuMzguODEtMy4wNy44MXMtMy4wNy0uMzYtMy4wNy0uODEgMS4zOC0uODEgMy4wNy0uODEgMy4wNy4zNiAzLjA3LjgxIiBmaWxsPSIjNTBlNmZmIi8+PHBhdGggZD0iTTEzLjUgMy40M2E4LjY1IDguNjUgMCAwMC0yLjQzLjMgNy44IDcuOCAwIDAwMi40My4zMiA3LjggNy44IDAgMDAyLjQzLS4zMiA4LjY1IDguNjUgMCAwMC0yLjQzLS4zeiIgZmlsbD0iIzMyYmVkZCIvPjxwYXRoIGQ9Ik00LjUgNC42MmMtMi4yMSAwLTQtLjU3LTQtMS4yOHY2Ljc5YzAgLjY5IDEuNzYgMS4yNiA0IDEuMjcgMi4yMSAwIDQtLjU3IDQtMS4yN1YzLjM0YzAgLjcxLTEuNzkgMS4yOC00IDEuMjh6IiBmaWxsPSJ1cmwoI2IpIi8+PHBhdGggZD0iTTguNSAzLjM0YzAgLjcxLTEuNzkgMS4yOC00IDEuMjhzLTQtLjU3LTQtMS4yOCAxLjc5LTEuMjcgNC0xLjI3IDQgLjU3IDQgMS4yNyIgZmlsbD0iI2U4ZThlOCIvPjxwYXRoIGQ9Ik03LjU3IDMuMjRjMCAuNDUtMS4zOC44MS0zLjA3Ljgxcy0zLjA3LS4zNi0zLjA3LS44MSAxLjM4LS44MSAzLjA3LS44MSAzLjA3LjM2IDMuMDcuODEiIGZpbGw9IiM1MGU2ZmYiLz48cGF0aCBkPSJNNC41IDMuNDNhOC42NSA4LjY1IDAgMDAtMi40My4zIDcuOCA3LjggMCAwMDIuNDMuMzIgNy44IDcuOCAwIDAwMi40My0uMzIgOC42NSA4LjY1IDAgMDAtMi40My0uM3oiIGZpbGw9IiMzMmJlZGQiLz48cGF0aCBkPSJNOSA5LjE1Yy0yLjIxIDAtNC0uNTctNC0xLjI4djYuNzljMCAuNyAxLjc2IDEuMjYgMy45NSAxLjI3SDljMi4yMSAwIDQtLjU3IDQtMS4yN1Y3Ljg3YzAgLjcxLTEuNzkgMS4yOC00IDEuMjh6IiBmaWxsPSJ1cmwoI2MpIi8+PHBhdGggZD0iTTEzIDcuODdjMCAuNzEtMS43OSAxLjI4LTQgMS4yOHMtNC0uNTctNC0xLjI4UzYuNzkgNi42IDkgNi42czQgLjU3IDQgMS4yNyIgZmlsbD0iI2U4ZThlOCIvPjxwYXRoIGQ9Ik0xMi4wNyA3Ljc3YzAgLjQ1LTEuMzguODEtMy4wNy44MXMtMy4wNy0uMzYtMy4wNy0uODFTNy4zMSA3IDkgN3MzLjA3LjM2IDMuMDcuODEiIGZpbGw9IiM1MGU2ZmYiLz48cGF0aCBkPSJNOSA4YTguNjUgOC42NSAwIDAwLTIuNDMuM0E3LjggNy44IDAgMDA5IDguNThhNy44IDcuOCAwIDAwMi40My0uMzJBOC42NSA4LjY1IDAgMDA5IDh6IiBmaWxsPSIjMzJiZWRkIi8+PC9zdmc+" parent="1" vertex="1">
          <mxGeometry x="280" y="360" width="50" height="50" as="geometry" />
        </mxCell>
        <mxCell id="D7m23AtETstgwqexV8Tc-6" value="" style="shape=image;verticalLabelPosition=bottom;verticalAlign=top;imageAspect=0;aspect=fixed;image=data:image/svg+xml,PHN2ZyB4bWxucz0iaHR0cDovL3d3dy53My5vcmcvMjAwMC9zdmciIHZpZXdCb3g9IjAgMCAxOCAxOCI+PGRlZnM+PGxpbmVhckdyYWRpZW50IGlkPSJhIiB4MT0iNS4zMyIgeTE9IjIuODEiIHgyPSI4Ljc0IiB5Mj0iNi4yMiIgZ3JhZGllbnRUcmFuc2Zvcm09InJvdGF0ZSgtLjA4IC05ODAuMTc1IC0xNDU0LjU2NSkiIGdyYWRpZW50VW5pdHM9InVzZXJTcGFjZU9uVXNlIj48c3RvcCBvZmZzZXQ9IjAiIHN0b3AtY29sb3I9IiM4NmQ2MzMiLz48c3RvcCBvZmZzZXQ9IjEiIHN0b3AtY29sb3I9IiM1ZTk2MjQiLz48L2xpbmVhckdyYWRpZW50PjxsaW5lYXJHcmFkaWVudCBpZD0iYiIgeDE9IjExLjg0IiB5MT0iMTQuNTQiIHgyPSIxNS4yNCIgeTI9IjE3Ljk1IiBncmFkaWVudFVuaXRzPSJ1c2VyU3BhY2VPblVzZSI+PHN0b3Agb2Zmc2V0PSIwIiBzdG9wLWNvbG9yPSIjODZkNjMzIi8+PHN0b3Agb2Zmc2V0PSIxIiBzdG9wLWNvbG9yPSIjNWU5NjI0Ii8+PC9saW5lYXJHcmFkaWVudD48bGluZWFyR3JhZGllbnQgaWQ9ImMiIHgxPSItMS4zNCIgeTE9IjE0LjUzIiB4Mj0iMi4wNiIgeTI9IjE3LjkzIiBncmFkaWVudFVuaXRzPSJ1c2VyU3BhY2VPblVzZSI+PHN0b3Agb2Zmc2V0PSIwIiBzdG9wLWNvbG9yPSIjODZkNjMzIi8+PHN0b3Agb2Zmc2V0PSIxIiBzdG9wLWNvbG9yPSIjNWU5NjI0Ii8+PC9saW5lYXJHcmFkaWVudD48L2RlZnM+PHBhdGggZmlsbD0iI2E2N2FmNCIgZD0iTTcuMjUgNC4zNTZsMS43MTUuOTktNC43NSA4LjIyNy0xLjcxNS0uOTl6TTguOTczIDUuNWwxLjcxNS0uOTkgNC43NSA4LjIyNy0xLjcxNS45OXoiLz48cGF0aCBmaWxsPSIjNzczYWRjIiBkPSJNMTMuNjQgMTMuNzJ2MS45OGgtOS41di0xLjk4eiIvPjxjaXJjbGUgY3g9IjkuMDciIGN5PSIzLjE0IiByPSIyLjQxIiBmaWxsPSJ1cmwoI2EpIi8+PGNpcmNsZSBjeD0iMTUuNTkiIGN5PSIxNC44NiIgcj0iMi40MSIgZmlsbD0idXJsKCNiKSIvPjxjaXJjbGUgY3g9IjIuNDEiIGN5PSIxNC44NiIgcj0iMi40MSIgZmlsbD0idXJsKCNjKSIvPjwvc3ZnPg==" parent="1" vertex="1">
          <mxGeometry x="690" y="55" width="60" height="60" as="geometry" />
        </mxCell>
        <mxCell id="D7m23AtETstgwqexV8Tc-8" value="" style="shape=image;verticalLabelPosition=bottom;verticalAlign=top;imageAspect=0;aspect=fixed;image=data:image/svg+xml,PHN2ZyB4bWxucz0iaHR0cDovL3d3dy53My5vcmcvMjAwMC9zdmciIHZpZXdCb3g9IjAgMCAxOCAxOCI+PGRlZnM+PGxpbmVhckdyYWRpZW50IGlkPSJhIiB4MT0iLTE3NS45OTMiIHkxPSItMzQzLjcyMyIgeDI9Ii0xNzUuOTkzIiB5Mj0iLTM1OS4yMzIiIGdyYWRpZW50VHJhbnNmb3JtPSJtYXRyaXgoMS4xNTYgMCAwIDEuMDI5IDIxMi41NzMgMzcwLjU0OCkiIGdyYWRpZW50VW5pdHM9InVzZXJTcGFjZU9uVXNlIj48c3RvcCBvZmZzZXQ9IjAiIHN0b3AtY29sb3I9IiNmZWExMWIiLz48c3RvcCBvZmZzZXQ9Ii4yODQiIHN0b3AtY29sb3I9IiNmZWE1MWEiLz48c3RvcCBvZmZzZXQ9Ii41NDciIHN0b3AtY29sb3I9IiNmZWIwMTgiLz48c3RvcCBvZmZzZXQ9Ii44IiBzdG9wLWNvbG9yPSIjZmZjMzE0Ii8+PHN0b3Agb2Zmc2V0PSIxIiBzdG9wLWNvbG9yPSIjZmZkNzBmIi8+PC9saW5lYXJHcmFkaWVudD48L2RlZnM+PHBhdGggZD0iTTUuNTQgMTMuMTA1bC0uNTg2LjU4OGEuMjY3LjI2NyAwIDAxLS4zNzcgMEwuMjIzIDkuMzUzYS41MzMuNTMzIDAgMDEwLS43NTVsLjU4OC0uNTkgNC43MzIgNC43MThhLjI2Ny4yNjcgMCAwMTAgLjM3OHoiIGZpbGw9IiM1MGU2ZmYiLz48cGF0aCBkPSJNNC44NjMgNC4zMDVsLjU5LjU4OGEuMjY3LjI2NyAwIDAxMCAuMzc4TC44MDYgOS45MzJsLS41OS0uNTg5YS41MzMuNTMzIDAgMDEtLjAwMS0uNzU0bDQuMjczLTQuMjg1YS4yNjcuMjY3IDAgMDEuMzc2IDB6IiBmaWxsPSIjMTQ5MGRmIi8+PHBhdGggZD0iTTE3LjE5IDguMDEybC41ODguNTlhLjUzMy41MzMgMCAwMS0uMDAxLjc1NGwtNC4zNTQgNC4zNGEuMjY3LjI2NyAwIDAxLS4zNzcgMGwtLjU4Ni0uNTg3YS4yNjcuMjY3IDAgMDEwLS4zNzdsNC43MzItNC43MTh6IiBmaWxsPSIjNTBlNmZmIi8+PHBhdGggZD0iTTE3Ljc4MiA5LjM0bC0uNTkuNTg5LTQuNjQ4LTQuNjYyYS4yNjcuMjY3IDAgMDEwLS4zNzdsLjU5LS41ODhhLjI2Ny4yNjcgMCAwMS4zNzggMGw0LjI3MyA0LjI4NmEuNTMzLjUzMyAwIDAxMCAuNzUzeiIgZmlsbD0iIzE0OTBkZiIvPjxwYXRoIGQ9Ik04LjQ1OSA5LjlINC44N2EuMTkzLjE5MyAwIDAxLS4yLS4xODEuMTY2LjE2NiAwIDAxLjAxOC0uMDc1TDguOTkxIDEuMTNhLjIwNi4yMDYgMCAwMS4xODYtLjEwNmg0LjI0NWEuMTkzLjE5MyAwIDAxLjIuMTgxLjE2NS4xNjUgMCAwMS0uMDM1LjFMOC41MzQgNy45NjZoNC45MjhhLjE5My4xOTMgMCAwMS4yLjE4MS4xNzYuMTc2IDAgMDEtLjA1Mi4xMjJsLTguMTg5IDguNTE5Yy0uMDc3LjA0Ni0uNjI0LjUtLjM1Ni0uMTg5eiIgZmlsbD0idXJsKCNhKSIvPjwvc3ZnPg==" parent="1" vertex="1">
          <mxGeometry x="440" y="360" width="50" height="50" as="geometry" />
        </mxCell>
        <mxCell id="D7m23AtETstgwqexV8Tc-11" value="" style="shape=image;verticalLabelPosition=bottom;verticalAlign=top;imageAspect=0;aspect=fixed;image=data:image/svg+xml,PHN2ZyB4bWxucz0iaHR0cDovL3d3dy53My5vcmcvMjAwMC9zdmciIHZpZXdCb3g9IjAgMCAxOCAxOCI+PGRlZnM+PGxpbmVhckdyYWRpZW50IGlkPSJhIiB4MT0iMTAuNzkiIHkxPSIyLjE3IiB4Mj0iMTAuNzkiIHkyPSIxNi41NiIgZ3JhZGllbnRVbml0cz0idXNlclNwYWNlT25Vc2UiPjxzdG9wIG9mZnNldD0iLjE4IiBzdG9wLWNvbG9yPSIjNWVhMGVmIi8+PHN0b3Agb2Zmc2V0PSIxIiBzdG9wLWNvbG9yPSIjMDA3OGQ0Ii8+PC9saW5lYXJHcmFkaWVudD48L2RlZnM+PHJlY3QgeD0iMy43IiB5PSI1LjQ5IiB3aWR0aD0iMS4xOCIgaGVpZ2h0PSI1LjI2IiByeD0iLjUyIiB0cmFuc2Zvcm09InJvdGF0ZSgtOTAgNC4yOSA4LjEyKSIgZmlsbD0iI2IzYjNiMyIvPjxyZWN0IHg9IjIuMDQiIHk9IjcuODgiIHdpZHRoPSIxLjE4IiBoZWlnaHQ9IjUuMjYiIHJ4PSIuNTIiIHRyYW5zZm9ybT0icm90YXRlKC05MCAyLjYzIDEwLjUxKSIgZmlsbD0iI2EzYTNhMyIvPjxyZWN0IHg9IjMuNyIgeT0iMTAuMjYiIHdpZHRoPSIxLjE4IiBoZWlnaHQ9IjUuMjYiIHJ4PSIuNTIiIHRyYW5zZm9ybT0icm90YXRlKC05MCA0LjI5NSAxMi44OTUpIiBmaWxsPSIjN2E3YTdhIi8+PHBhdGggZD0iTTE4IDExYTMuMjggMy4yOCAwIDAwLTIuODEtMy4xOCA0LjEzIDQuMTMgMCAwMC00LjIxLTQgNC4yMyA0LjIzIDAgMDAtNCAyLjggMy44OSAzLjg5IDAgMDAtMy4zOCAzLjggNCA0IDAgMDA0LjA2IDMuODZoNy4xMUEzLjMyIDMuMzIgMCAwMDE4IDExeiIgZmlsbD0idXJsKCNhKSIvPjwvc3ZnPg==" parent="1" vertex="1">
          <mxGeometry x="255" y="526" width="100" height="100" as="geometry" />
        </mxCell>
        <mxCell id="D7m23AtETstgwqexV8Tc-21" value="" style="endArrow=classic;html=1;fillColor=#f8cecc;rounded=1;strokeColor=#007FFF;strokeWidth=3;entryX=1;entryY=0.5;entryDx=0;entryDy=0;exitX=0;exitY=0.5;exitDx=0;exitDy=0;" parent="1" source="D7m23AtETstgwqexV8Tc-6" target="D7m23AtETstgwqexV8Tc-4" edge="1">
          <mxGeometry width="50" height="50" relative="1" as="geometry">
            <mxPoint x="610" y="220" as="sourcePoint" />
            <mxPoint x="660" y="170" as="targetPoint" />
          </mxGeometry>
        </mxCell>
        <mxCell id="D7m23AtETstgwqexV8Tc-23" value="" style="endArrow=classic;html=1;strokeColor=#007FFF;strokeWidth=3;entryX=0.5;entryY=0;entryDx=0;entryDy=0;" parent="1" source="D7m23AtETstgwqexV8Tc-2" target="D7m23AtETstgwqexV8Tc-8" edge="1">
          <mxGeometry width="50" height="50" relative="1" as="geometry">
            <mxPoint x="465" y="260" as="sourcePoint" />
            <mxPoint x="464.5" y="320" as="targetPoint" />
          </mxGeometry>
        </mxCell>
        <mxCell id="D7m23AtETstgwqexV8Tc-24" value="" style="endArrow=classic;html=1;fillColor=#f8cecc;rounded=1;strokeColor=#007FFF;strokeWidth=3;entryX=1;entryY=0.5;entryDx=0;entryDy=0;" parent="1" target="D7m23AtETstgwqexV8Tc-5" edge="1">
          <mxGeometry width="50" height="50" relative="1" as="geometry">
            <mxPoint x="440" y="385" as="sourcePoint" />
            <mxPoint x="340" y="384.5" as="targetPoint" />
          </mxGeometry>
        </mxCell>
        <mxCell id="D7m23AtETstgwqexV8Tc-25" value="Contentful Webhook Endpoint" style="text;html=1;strokeColor=none;fillColor=none;align=center;verticalAlign=middle;whiteSpace=wrap;rounded=0;" parent="1" vertex="1">
          <mxGeometry x="550" y="100" width="80" height="45" as="geometry" />
        </mxCell>
        <mxCell id="D7m23AtETstgwqexV8Tc-26" value="Contentful" style="text;html=1;strokeColor=none;fillColor=none;align=center;verticalAlign=middle;whiteSpace=wrap;rounded=0;" parent="1" vertex="1">
          <mxGeometry x="700" y="125" width="40" height="20" as="geometry" />
        </mxCell>
        <mxCell id="D7m23AtETstgwqexV8Tc-29" value="" style="endArrow=classic;html=1;fillColor=#f8cecc;rounded=1;strokeColor=#007FFF;strokeWidth=3;entryX=0.5;entryY=0;entryDx=0;entryDy=0;exitX=0.5;exitY=1;exitDx=0;exitDy=0;" parent="1" source="D7m23AtETstgwqexV8Tc-4" target="D7m23AtETstgwqexV8Tc-2" edge="1">
          <mxGeometry width="50" height="50" relative="1" as="geometry">
            <mxPoint x="440" y="170" as="sourcePoint" />
            <mxPoint x="240" y="170" as="targetPoint" />
          </mxGeometry>
        </mxCell>
        <mxCell id="D7m23AtETstgwqexV8Tc-30" value="Service Bus" style="text;html=1;strokeColor=none;fillColor=none;align=center;verticalAlign=middle;whiteSpace=wrap;rounded=0;" parent="1" vertex="1">
          <mxGeometry x="510" y="240" width="40" height="20" as="geometry" />
        </mxCell>
        <mxCell id="D7m23AtETstgwqexV8Tc-31" value="Function to Reset Cache" style="text;html=1;strokeColor=none;fillColor=none;align=center;verticalAlign=middle;whiteSpace=wrap;rounded=0;" parent="1" vertex="1">
          <mxGeometry x="500" y="375" width="90" height="20" as="geometry" />
        </mxCell>
        <mxCell id="bsKVTfGhGR1tLXlduHgH-1" value="Content Service" style="text;html=1;strokeColor=none;fillColor=none;align=center;verticalAlign=middle;whiteSpace=wrap;rounded=0;" vertex="1" parent="1">
          <mxGeometry x="85" y="440" width="40" height="20" as="geometry" />
        </mxCell>
        <mxCell id="bsKVTfGhGR1tLXlduHgH-2" value="Redis Cache" style="text;html=1;strokeColor=none;fillColor=none;align=center;verticalAlign=middle;whiteSpace=wrap;rounded=0;" vertex="1" parent="1">
          <mxGeometry x="290" y="330" width="40" height="20" as="geometry" />
        </mxCell>
        <mxCell id="bsKVTfGhGR1tLXlduHgH-3" value="Contentful" style="text;html=1;strokeColor=none;fillColor=none;align=center;verticalAlign=middle;whiteSpace=wrap;rounded=0;" vertex="1" parent="1">
          <mxGeometry x="285" y="626" width="40" height="20" as="geometry" />
        </mxCell>
      </root>
    </mxGraphModel>
  </diagram>
  <diagram name="Search" id="NgjUTH-JQDieh6brVq7R">
    <mxGraphModel dx="968" dy="551" grid="1" gridSize="10" guides="1" tooltips="1" connect="1" arrows="1" fold="1" page="1" pageScale="1" pageWidth="850" pageHeight="1100" math="0" shadow="0">
      <root>
        <mxCell id="sOccohnL0xESqHE3Cxpw-0" />
        <mxCell id="sOccohnL0xESqHE3Cxpw-1" parent="sOccohnL0xESqHE3Cxpw-0" />
        <mxCell id="sOccohnL0xESqHE3Cxpw-2" value="" style="shape=image;verticalLabelPosition=bottom;verticalAlign=top;imageAspect=0;aspect=fixed;image=data:image/svg+xml,PHN2ZyB4bWxucz0iaHR0cDovL3d3dy53My5vcmcvMjAwMC9zdmciIHZpZXdCb3g9IjAgMCAxOCAxOCI+PGRlZnM+PGxpbmVhckdyYWRpZW50IGlkPSJhIiB4MT0iOSIgeTE9IjEwLjMiIHgyPSI5IiB5Mj0iMTMuMiIgZ3JhZGllbnRVbml0cz0idXNlclNwYWNlT25Vc2UiPjxzdG9wIG9mZnNldD0iMCIgc3RvcC1jb2xvcj0iIzAwNWJhMSIvPjxzdG9wIG9mZnNldD0iLjI2IiBzdG9wLWNvbG9yPSIjMDA1ODlkIi8+PHN0b3Agb2Zmc2V0PSIuNTMiIHN0b3AtY29sb3I9IiMwMDRmOTAiLz48c3RvcCBvZmZzZXQ9Ii44IiBzdG9wLWNvbG9yPSIjMDAzZjdjIi8+PHN0b3Agb2Zmc2V0PSIxIiBzdG9wLWNvbG9yPSIjMDAzMDY3Ii8+PC9saW5lYXJHcmFkaWVudD48L2RlZnM+PHBhdGggZmlsbD0iIzUwZTZmZiIgZD0iTTEzLjM5IDcuNGgtLjAxdi0uMDJoLS4wMkw5IDQuNDEgNC42MyA3LjM4aC0uMDJ2NS44Mmg4Ljc3VjcuNGguMDF6Ii8+PHBhdGggZD0iTTQuNjEgNy40djUuOEw5IDEwLjN6IiBmaWxsPSIjMzJiZWRkIi8+PHBhdGggZD0iTTEzLjM4IDcuNEw5IDEwLjNsNC4zOCAyLjl6IiBmaWxsPSIjMTk4YWIzIi8+PHBhdGggZmlsbD0idXJsKCNhKSIgZD0iTTguOTkgMTAuM2wtNC4zOCAyLjg5di4wMWg4Ljc3di0uMDFMOC45OSAxMC4zeiIvPjxnIGZpbGw9IiM5OTkiPjxwYXRoIGQ9Ik0xLjA3IDEuNDNoMS4yOVY1YS4yOS4yOSAwIDAxLS4yOS4yOUguNzlBLjI5LjI5IDAgMDEuNSA1VjJhLjU3LjU3IDAgMDEuNTctLjU3eiIvPjxwYXRoIGQ9Ik0xLjA3IDEuNDNoMS4yOVY1YS4yOS4yOSAwIDAxLS4yOS4yOUguNzlBLjI5LjI5IDAgMDEuNSA1VjJhLjU3LjU3IDAgMDEuNTctLjU3eiIgb3BhY2l0eT0iLjUiLz48L2c+PGcgZmlsbD0iIzk5OSI+PHBhdGggZD0iTTE1LjY0IDEuNDNoMS4yOWEuNTcuNTcgMCAwMS41Ny41N3YzYS4yOS4yOSAwIDAxLS4yOS4yOWgtMS4yOWEuMjkuMjkgMCAwMS0uMjgtLjI5VjEuNDN6Ii8+PHBhdGggZD0iTTE1LjY0IDEuNDNoMS4yOWEuNTcuNTcgMCAwMS41Ny41N3YzYS4yOS4yOSAwIDAxLS4yOS4yOWgtMS4yOWEuMjkuMjkgMCAwMS0uMjgtLjI5VjEuNDN6IiBvcGFjaXR5PSIuNSIvPjwvZz48cGF0aCBkPSJNMTcuNSAydjEuMjVILjVWMmEuNTcuNTcgMCAwMS41Ny0uNTdoMTUuODdhLjU3LjU3IDAgMDEuNTYuNTd6IiBmaWxsPSIjOTQ5NDk0Ii8+PGcgZmlsbD0iIzk5OSI+PHBhdGggZD0iTS43OSAxMi42OGgxLjI5YS4yOS4yOSAwIDAxLjI5LjI5djMuNmgtMS4zQS41Ny41NyAwIDAxLjUgMTZ2LTNhLjI5LjI5IDAgMDEuMjktLjMyeiIvPjxwYXRoIGQ9Ik0uNzkgMTIuNjhoMS4yOWEuMjkuMjkgMCAwMS4yOS4yOXYzLjZoLTEuM0EuNTcuNTcgMCAwMS41IDE2di0zYS4yOS4yOSAwIDAxLjI5LS4zMnoiIG9wYWNpdHk9Ii41Ii8+PC9nPjxnIGZpbGw9IiM5OTkiPjxwYXRoIGQ9Ik0xNS45MiAxMi42OGgxLjI5YS4yOS4yOSAwIDAxLjI5LjI5djNhLjU3LjU3IDAgMDEtLjU3LjU3aC0xLjI5VjEzYS4yOS4yOSAwIDAxLjI4LS4zMnoiLz48cGF0aCBkPSJNMTUuOTIgMTIuNjhoMS4yOWEuMjkuMjkgMCAwMS4yOS4yOXYzYS41Ny41NyAwIDAxLS41Ny41N2gtMS4yOVYxM2EuMjkuMjkgMCAwMS4yOC0uMzJ6IiBvcGFjaXR5PSIuNSIvPjwvZz48cGF0aCBkPSJNLjUgMTZ2LTEuMjVoMTdWMTZhLjU3LjU3IDAgMDEtLjU3LjU3SDEuMDdBLjU3LjU3IDAgMDEuNSAxNnoiIGZpbGw9IiM5NDk0OTQiLz48L3N2Zz4=" vertex="1" parent="sOccohnL0xESqHE3Cxpw-1">
          <mxGeometry x="430" y="198" width="70" height="70" as="geometry" />
        </mxCell>
        <mxCell id="sOccohnL0xESqHE3Cxpw-3" style="edgeStyle=orthogonalEdgeStyle;rounded=0;orthogonalLoop=1;jettySize=auto;html=1;exitX=1;exitY=0.5;exitDx=0;exitDy=0;entryX=0;entryY=0.5;entryDx=0;entryDy=0;" edge="1" parent="sOccohnL0xESqHE3Cxpw-1" source="sOccohnL0xESqHE3Cxpw-5" target="sOccohnL0xESqHE3Cxpw-7">
          <mxGeometry relative="1" as="geometry" />
        </mxCell>
        <mxCell id="sOccohnL0xESqHE3Cxpw-4" style="edgeStyle=orthogonalEdgeStyle;rounded=0;orthogonalLoop=1;jettySize=auto;html=1;exitX=0.5;exitY=1;exitDx=0;exitDy=0;" edge="1" parent="sOccohnL0xESqHE3Cxpw-1" source="sOccohnL0xESqHE3Cxpw-7" target="sOccohnL0xESqHE3Cxpw-10">
          <mxGeometry relative="1" as="geometry" />
        </mxCell>
        <mxCell id="sOccohnL0xESqHE3Cxpw-5" value="" style="shape=image;verticalLabelPosition=bottom;verticalAlign=top;imageAspect=0;aspect=fixed;image=data:image/svg+xml,PHN2ZyB4bWxucz0iaHR0cDovL3d3dy53My5vcmcvMjAwMC9zdmciIHZlcnNpb249IjEuMSIgaWQ9ImI3MGFjZjBhLTM0YjQtNGJkZi05MDI0LTc0OTYwNDNmZjkxNSIgeD0iMCIgeT0iMCIgdmlld0JveD0iMCAwIDE4IDE4IiB4bWw6c3BhY2U9InByZXNlcnZlIj48c3R5bGU+LnN0MntlbmFibGUtYmFja2dyb3VuZDpuZXc7b3BhY2l0eTouNTU7ZmlsbDojZjJmMmYyfTwvc3R5bGU+PHJhZGlhbEdyYWRpZW50IGlkPSJlZTc1ZGQwNi0xYWNhLTRmNzYtOWQxMS1kMDVhMjg0MDIwYWRfMV8iIGN4PSIxNzI0Mi40MDQiIGN5PSItNTYxOC4xOTMiIHI9IjU2LjcwNiIgZ3JhZGllbnRUcmFuc2Zvcm09Im1hdHJpeCguMTUgMCAwIC0uMTUgLTI1NzcuMzggLTgzMy43MykiIGdyYWRpZW50VW5pdHM9InVzZXJTcGFjZU9uVXNlIj48c3RvcCBvZmZzZXQ9Ii4xOCIgc3RvcC1jb2xvcj0iIzVlYTBlZiIvPjxzdG9wIG9mZnNldD0iMSIgc3RvcC1jb2xvcj0iIzAwNzhkNCIvPjwvcmFkaWFsR3JhZGllbnQ+PHBhdGggaWQ9ImVlNzVkZDA2LTFhY2EtNGY3Ni05ZDExLWQwNWEyODQwMjBhZCIgZD0iTTE0LjIgMTUuN2MtMy43IDIuOS05LjEgMi4yLTExLjktMS41Uy4xIDUuMiAzLjggMi4zbC4xLS4xQzcuNy0uNiAxMyAuMiAxNS44IDMuOWMyLjcgMy43IDIgOS0xLjYgMTEuOCIgZmlsbD0idXJsKCNlZTc1ZGQwNi0xYWNhLTRmNzYtOWQxMS1kMDVhMjg0MDIwYWRfMV8pIi8+PHBhdGggZD0iTTYuNyA3LjJjMi40LTIuMyA1LjYtMy42IDguOS0zLjYtLjQtLjUtLjktMS0xLjUtMS40LTEuNi4xLTMuMi41LTQuNyAxLjEtMS41LjctMi45IDEuNi00LjEgMi44LjYuMiAxLjEuNiAxLjQgMS4xem0tNC4yIDMuNGMtLjMuOS0uNiAxLjctLjggMi42bC42LjljLjIuMi4zLjQuNS42LjItMS4yLjYtMi40IDEuMS0zLjUtLjUuMS0xLS4yLTEuNC0uNnoiIG9wYWNpdHk9Ii42IiBmaWxsPSIjZmZmIi8+PHBhdGggY2xhc3M9InN0MiIgZD0iTTMuNSA2LjFjLS40LS45LS42LTEuOS0uNy0yLjktLjQuNC0uOC45LTEuMSAxLjQuMS44LjMgMS42LjUgMi40LjQtLjQuOC0uNyAxLjMtLjl6Ii8+PGxpbmVhckdyYWRpZW50IGlkPSJTVkdJRF8xXyIgZ3JhZGllbnRVbml0cz0idXNlclNwYWNlT25Vc2UiIHgxPSI0LjQwMSIgeTE9IjguNTIiIHgyPSI0LjM3MSIgeTI9IjEyLjQ3IiBncmFkaWVudFRyYW5zZm9ybT0ibWF0cml4KDEgMCAwIC0xIDAgMjApIj48c3RvcCBvZmZzZXQ9IjAiIHN0b3AtY29sb3I9IiNjY2MiLz48c3RvcCBvZmZzZXQ9IjEiIHN0b3AtY29sb3I9IiNmY2ZjZmMiLz48L2xpbmVhckdyYWRpZW50PjxjaXJjbGUgY3g9IjQuNCIgY3k9IjguNyIgcj0iMi43IiBmaWxsPSJ1cmwoI1NWR0lEXzFfKSIvPjxwYXRoIGNsYXNzPSJzdDIiIGQ9Ik04LjQgMTMuN2MwLS41LjItLjkuNS0xLjMtLjktLjUtMS44LTEuMS0yLjUtMS45LS40LjUtLjkuOC0xLjUuOS41LjUuOS45IDEuNCAxLjMuNi41IDEuMy45IDIuMSAxLjN2LS4zem02LjMuMmMtLjkgMC0xLjktLjEtMi44LS4zdi4xYzAgLjUtLjIuOS0uNSAxLjIgMS4xLjIgMi4zLjMgMy40LjIuNC0uNC44LS45IDEuMi0xLjMtLjQuMS0uOS4xLTEuMy4xeiIvPjxsaW5lYXJHcmFkaWVudCBpZD0iU1ZHSURfMl8iIGdyYWRpZW50VW5pdHM9InVzZXJTcGFjZU9uVXNlIiB4MT0iMTAuMTMiIHkxPSI0LjU1IiB4Mj0iMTAuMTMiIHkyPSI4LjEiIGdyYWRpZW50VHJhbnNmb3JtPSJtYXRyaXgoMSAwIDAgLTEgMCAyMCkiPjxzdG9wIG9mZnNldD0iMCIgc3RvcC1jb2xvcj0iI2NjYyIvPjxzdG9wIG9mZnNldD0iMSIgc3RvcC1jb2xvcj0iI2ZjZmNmYyIvPjwvbGluZWFyR3JhZGllbnQ+PGNpcmNsZSBjeD0iMTAuMSIgY3k9IjEzLjciIHI9IjEuOCIgZmlsbD0idXJsKCNTVkdJRF8yXykiLz48cGF0aCBkPSJNMTIuMyA4LjljLjEtLjQuMy0uNy42LTEtMS42LTEuMi0zLjEtMi42LTQuNS00LjFDNy43IDIuOSA3IDEuOSA2LjUuOWMtLjQuMS0uOC4yLTEuMS40LjYgMS4xIDEuMyAyLjIgMi4xIDMuMiAxLjQgMS42IDMgMy4xIDQuOCA0LjR6IiBvcGFjaXR5PSIuNyIgZmlsbD0iI2YyZjJmMiIvPjxsaW5lYXJHcmFkaWVudCBpZD0iU1ZHSURfM18iIGdyYWRpZW50VW5pdHM9InVzZXJTcGFjZU9uVXNlIiB4MT0iMTQuMTgiIHkxPSI4Ljg1IiB4Mj0iMTQuMTgiIHkyPSIxMi42MiIgZ3JhZGllbnRUcmFuc2Zvcm09Im1hdHJpeCgxIDAgMCAtMSAwIDIwKSI+PHN0b3Agb2Zmc2V0PSIwIiBzdG9wLWNvbG9yPSIjY2NjIi8+PHN0b3Agb2Zmc2V0PSIxIiBzdG9wLWNvbG9yPSIjZmNmY2ZjIi8+PC9saW5lYXJHcmFkaWVudD48Y2lyY2xlIGN4PSIxNC4yIiBjeT0iOS4zIiByPSIxLjkiIGZpbGw9InVybCgjU1ZHSURfM18pIi8+PHBhdGggY2xhc3M9InN0MiIgZD0iTTE3LjQgMTAuNWwtLjQtLjEtLjMtLjJoLS4xbC0uMi0uMmgtLjFsLS4zLS4yYy0uMS40LS4zLjctLjYuOS4xLjEuMy4xLjQuMmwuMS4xLjQuMi45LjRjMC0uMyAwLS43LjItMS4xeiIvPjxsaW5lYXJHcmFkaWVudCBpZD0iU1ZHSURfNF8iIGdyYWRpZW50VW5pdHM9InVzZXJTcGFjZU9uVXNlIiB4MT0iNC40MDEiIHkxPSI4LjUyIiB4Mj0iNC4zNzEiIHkyPSIxMi40NyIgZ3JhZGllbnRUcmFuc2Zvcm09Im1hdHJpeCgxIDAgMCAtMSAwIDIwKSI+PHN0b3Agb2Zmc2V0PSIwIiBzdG9wLWNvbG9yPSIjY2NjIi8+PHN0b3Agb2Zmc2V0PSIxIiBzdG9wLWNvbG9yPSIjZmNmY2ZjIi8+PC9saW5lYXJHcmFkaWVudD48Y2lyY2xlIGN4PSI0LjQiIGN5PSI4LjciIHI9IjIuNyIgZmlsbD0idXJsKCNTVkdJRF80XykiLz48bGluZWFyR3JhZGllbnQgaWQ9IlNWR0lEXzVfIiBncmFkaWVudFVuaXRzPSJ1c2VyU3BhY2VPblVzZSIgeDE9IjEwLjEzIiB5MT0iNC41NSIgeDI9IjEwLjEzIiB5Mj0iOC4xIiBncmFkaWVudFRyYW5zZm9ybT0ibWF0cml4KDEgMCAwIC0xIDAgMjApIj48c3RvcCBvZmZzZXQ9IjAiIHN0b3AtY29sb3I9IiNjY2MiLz48c3RvcCBvZmZzZXQ9IjEiIHN0b3AtY29sb3I9IiNmY2ZjZmMiLz48L2xpbmVhckdyYWRpZW50PjxjaXJjbGUgY3g9IjEwLjEiIGN5PSIxMy43IiByPSIxLjgiIGZpbGw9InVybCgjU1ZHSURfNV8pIi8+PC9zdmc+" vertex="1" parent="sOccohnL0xESqHE3Cxpw-1">
          <mxGeometry x="70" y="350" width="70" height="70" as="geometry" />
        </mxCell>
        <mxCell id="sOccohnL0xESqHE3Cxpw-6" value="" style="shape=image;verticalLabelPosition=bottom;verticalAlign=top;imageAspect=0;aspect=fixed;image=data:image/svg+xml,PHN2ZyB4bWxucz0iaHR0cDovL3d3dy53My5vcmcvMjAwMC9zdmciIHZpZXdCb3g9IjAgMCAxOCAxOCI+PGRlZnM+PGxpbmVhckdyYWRpZW50IGlkPSJhIiB4MT0iLTE3NS45OTMiIHkxPSItMzQzLjcyMyIgeDI9Ii0xNzUuOTkzIiB5Mj0iLTM1OS4yMzIiIGdyYWRpZW50VHJhbnNmb3JtPSJtYXRyaXgoMS4xNTYgMCAwIDEuMDI5IDIxMi41NzMgMzcwLjU0OCkiIGdyYWRpZW50VW5pdHM9InVzZXJTcGFjZU9uVXNlIj48c3RvcCBvZmZzZXQ9IjAiIHN0b3AtY29sb3I9IiNmZWExMWIiLz48c3RvcCBvZmZzZXQ9Ii4yODQiIHN0b3AtY29sb3I9IiNmZWE1MWEiLz48c3RvcCBvZmZzZXQ9Ii41NDciIHN0b3AtY29sb3I9IiNmZWIwMTgiLz48c3RvcCBvZmZzZXQ9Ii44IiBzdG9wLWNvbG9yPSIjZmZjMzE0Ii8+PHN0b3Agb2Zmc2V0PSIxIiBzdG9wLWNvbG9yPSIjZmZkNzBmIi8+PC9saW5lYXJHcmFkaWVudD48L2RlZnM+PHBhdGggZD0iTTUuNTQgMTMuMTA1bC0uNTg2LjU4OGEuMjY3LjI2NyAwIDAxLS4zNzcgMEwuMjIzIDkuMzUzYS41MzMuNTMzIDAgMDEwLS43NTVsLjU4OC0uNTkgNC43MzIgNC43MThhLjI2Ny4yNjcgMCAwMTAgLjM3OHoiIGZpbGw9IiM1MGU2ZmYiLz48cGF0aCBkPSJNNC44NjMgNC4zMDVsLjU5LjU4OGEuMjY3LjI2NyAwIDAxMCAuMzc4TC44MDYgOS45MzJsLS41OS0uNTg5YS41MzMuNTMzIDAgMDEtLjAwMS0uNzU0bDQuMjczLTQuMjg1YS4yNjcuMjY3IDAgMDEuMzc2IDB6IiBmaWxsPSIjMTQ5MGRmIi8+PHBhdGggZD0iTTE3LjE5IDguMDEybC41ODguNTlhLjUzMy41MzMgMCAwMS0uMDAxLjc1NGwtNC4zNTQgNC4zNGEuMjY3LjI2NyAwIDAxLS4zNzcgMGwtLjU4Ni0uNTg3YS4yNjcuMjY3IDAgMDEwLS4zNzdsNC43MzItNC43MTh6IiBmaWxsPSIjNTBlNmZmIi8+PHBhdGggZD0iTTE3Ljc4MiA5LjM0bC0uNTkuNTg5LTQuNjQ4LTQuNjYyYS4yNjcuMjY3IDAgMDEwLS4zNzdsLjU5LS41ODhhLjI2Ny4yNjcgMCAwMS4zNzggMGw0LjI3MyA0LjI4NmEuNTMzLjUzMyAwIDAxMCAuNzUzeiIgZmlsbD0iIzE0OTBkZiIvPjxwYXRoIGQ9Ik04LjQ1OSA5LjlINC44N2EuMTkzLjE5MyAwIDAxLS4yLS4xODEuMTY2LjE2NiAwIDAxLjAxOC0uMDc1TDguOTkxIDEuMTNhLjIwNi4yMDYgMCAwMS4xODYtLjEwNmg0LjI0NWEuMTkzLjE5MyAwIDAxLjIuMTgxLjE2NS4xNjUgMCAwMS0uMDM1LjFMOC41MzQgNy45NjZoNC45MjhhLjE5My4xOTMgMCAwMS4yLjE4MS4xNzYuMTc2IDAgMDEtLjA1Mi4xMjJsLTguMTg5IDguNTE5Yy0uMDc3LjA0Ni0uNjI0LjUtLjM1Ni0uMTg5eiIgZmlsbD0idXJsKCNhKSIvPjwvc3ZnPg==" vertex="1" parent="sOccohnL0xESqHE3Cxpw-1">
          <mxGeometry x="440" y="60" width="50" height="50" as="geometry" />
        </mxCell>
        <mxCell id="sOccohnL0xESqHE3Cxpw-7" value="" style="shape=image;verticalLabelPosition=bottom;verticalAlign=top;imageAspect=0;aspect=fixed;image=data:image/svg+xml,PHN2ZyB4bWxucz0iaHR0cDovL3d3dy53My5vcmcvMjAwMC9zdmciIHZpZXdCb3g9IjAgMCAxOCAxOCI+PGRlZnM+PGxpbmVhckdyYWRpZW50IGlkPSJhIiB4MT0iOS41IiB5MT0iNy4zNyIgeDI9IjE3LjUiIHkyPSI3LjM3IiBncmFkaWVudFVuaXRzPSJ1c2VyU3BhY2VPblVzZSI+PHN0b3Agb2Zmc2V0PSIwIiBzdG9wLWNvbG9yPSIjMDA1YmExIi8+PHN0b3Agb2Zmc2V0PSIuMDciIHN0b3AtY29sb3I9IiMwMDYwYTkiLz48c3RvcCBvZmZzZXQ9Ii4zNiIgc3RvcC1jb2xvcj0iIzAwNzFjOCIvPjxzdG9wIG9mZnNldD0iLjUyIiBzdG9wLWNvbG9yPSIjMDA3OGQ0Ii8+PHN0b3Agb2Zmc2V0PSIxIiBzdG9wLWNvbG9yPSIjMDA1YmExIi8+PC9saW5lYXJHcmFkaWVudD48bGluZWFyR3JhZGllbnQgaWQ9ImIiIHgxPSIuNSIgeTE9IjcuMzciIHgyPSI4LjUiIHkyPSI3LjM3IiBncmFkaWVudFVuaXRzPSJ1c2VyU3BhY2VPblVzZSI+PHN0b3Agb2Zmc2V0PSIwIiBzdG9wLWNvbG9yPSIjMDA1YmExIi8+PHN0b3Agb2Zmc2V0PSIuMDciIHN0b3AtY29sb3I9IiMwMDYwYTkiLz48c3RvcCBvZmZzZXQ9Ii4zNiIgc3RvcC1jb2xvcj0iIzAwNzFjOCIvPjxzdG9wIG9mZnNldD0iLjUyIiBzdG9wLWNvbG9yPSIjMDA3OGQ0Ii8+PHN0b3Agb2Zmc2V0PSIxIiBzdG9wLWNvbG9yPSIjMDA1YmExIi8+PC9saW5lYXJHcmFkaWVudD48bGluZWFyR3JhZGllbnQgaWQ9ImMiIHgxPSI1IiB5MT0iMTEuOSIgeDI9IjEzIiB5Mj0iMTEuOSIgZ3JhZGllbnRVbml0cz0idXNlclNwYWNlT25Vc2UiPjxzdG9wIG9mZnNldD0iMCIgc3RvcC1jb2xvcj0iIzAwNWJhMSIvPjxzdG9wIG9mZnNldD0iLjA3IiBzdG9wLWNvbG9yPSIjMDA2MGE5Ii8+PHN0b3Agb2Zmc2V0PSIuMzYiIHN0b3AtY29sb3I9IiMwMDcxYzgiLz48c3RvcCBvZmZzZXQ9Ii41MiIgc3RvcC1jb2xvcj0iIzAwNzhkNCIvPjxzdG9wIG9mZnNldD0iMSIgc3RvcC1jb2xvcj0iIzAwNWJhMSIvPjwvbGluZWFyR3JhZGllbnQ+PC9kZWZzPjxwYXRoIGQ9Ik0xMy41IDQuNjJjLTIuMjEgMC00LS41Ny00LTEuMjh2Ni43OWMwIC42OSAxLjc2IDEuMjYgMy45NSAxLjI3aC4wNWMyLjIxIDAgNC0uNTcgNC0xLjI3VjMuMzRjMCAuNzEtMS43OSAxLjI4LTQgMS4yOHoiIGZpbGw9InVybCgjYSkiLz48cGF0aCBkPSJNMTcuNSAzLjM0YzAgLjcxLTEuNzkgMS4yOC00IDEuMjhzLTQtLjU3LTQtMS4yOCAxLjc5LTEuMjcgNC0xLjI3IDQgLjU3IDQgMS4yNyIgZmlsbD0iI2U4ZThlOCIvPjxwYXRoIGQ9Ik0xNi41NyAzLjI0YzAgLjQ1LTEuMzguODEtMy4wNy44MXMtMy4wNy0uMzYtMy4wNy0uODEgMS4zOC0uODEgMy4wNy0uODEgMy4wNy4zNiAzLjA3LjgxIiBmaWxsPSIjNTBlNmZmIi8+PHBhdGggZD0iTTEzLjUgMy40M2E4LjY1IDguNjUgMCAwMC0yLjQzLjMgNy44IDcuOCAwIDAwMi40My4zMiA3LjggNy44IDAgMDAyLjQzLS4zMiA4LjY1IDguNjUgMCAwMC0yLjQzLS4zeiIgZmlsbD0iIzMyYmVkZCIvPjxwYXRoIGQ9Ik00LjUgNC42MmMtMi4yMSAwLTQtLjU3LTQtMS4yOHY2Ljc5YzAgLjY5IDEuNzYgMS4yNiA0IDEuMjcgMi4yMSAwIDQtLjU3IDQtMS4yN1YzLjM0YzAgLjcxLTEuNzkgMS4yOC00IDEuMjh6IiBmaWxsPSJ1cmwoI2IpIi8+PHBhdGggZD0iTTguNSAzLjM0YzAgLjcxLTEuNzkgMS4yOC00IDEuMjhzLTQtLjU3LTQtMS4yOCAxLjc5LTEuMjcgNC0xLjI3IDQgLjU3IDQgMS4yNyIgZmlsbD0iI2U4ZThlOCIvPjxwYXRoIGQ9Ik03LjU3IDMuMjRjMCAuNDUtMS4zOC44MS0zLjA3Ljgxcy0zLjA3LS4zNi0zLjA3LS44MSAxLjM4LS44MSAzLjA3LS44MSAzLjA3LjM2IDMuMDcuODEiIGZpbGw9IiM1MGU2ZmYiLz48cGF0aCBkPSJNNC41IDMuNDNhOC42NSA4LjY1IDAgMDAtMi40My4zIDcuOCA3LjggMCAwMDIuNDMuMzIgNy44IDcuOCAwIDAwMi40My0uMzIgOC42NSA4LjY1IDAgMDAtMi40My0uM3oiIGZpbGw9IiMzMmJlZGQiLz48cGF0aCBkPSJNOSA5LjE1Yy0yLjIxIDAtNC0uNTctNC0xLjI4djYuNzljMCAuNyAxLjc2IDEuMjYgMy45NSAxLjI3SDljMi4yMSAwIDQtLjU3IDQtMS4yN1Y3Ljg3YzAgLjcxLTEuNzkgMS4yOC00IDEuMjh6IiBmaWxsPSJ1cmwoI2MpIi8+PHBhdGggZD0iTTEzIDcuODdjMCAuNzEtMS43OSAxLjI4LTQgMS4yOHMtNC0uNTctNC0xLjI4UzYuNzkgNi42IDkgNi42czQgLjU3IDQgMS4yNyIgZmlsbD0iI2U4ZThlOCIvPjxwYXRoIGQ9Ik0xMi4wNyA3Ljc3YzAgLjQ1LTEuMzguODEtMy4wNy44MXMtMy4wNy0uMzYtMy4wNy0uODFTNy4zMSA3IDkgN3MzLjA3LjM2IDMuMDcuODEiIGZpbGw9IiM1MGU2ZmYiLz48cGF0aCBkPSJNOSA4YTguNjUgOC42NSAwIDAwLTIuNDMuM0E3LjggNy44IDAgMDA5IDguNThhNy44IDcuOCAwIDAwMi40My0uMzJBOC42NSA4LjY1IDAgMDA5IDh6IiBmaWxsPSIjMzJiZWRkIi8+PC9zdmc+" vertex="1" parent="sOccohnL0xESqHE3Cxpw-1">
          <mxGeometry x="280" y="360" width="50" height="50" as="geometry" />
        </mxCell>
        <mxCell id="sOccohnL0xESqHE3Cxpw-8" value="" style="shape=image;verticalLabelPosition=bottom;verticalAlign=top;imageAspect=0;aspect=fixed;image=data:image/svg+xml,PHN2ZyB4bWxucz0iaHR0cDovL3d3dy53My5vcmcvMjAwMC9zdmciIHZpZXdCb3g9IjAgMCAxOCAxOCI+PGRlZnM+PGxpbmVhckdyYWRpZW50IGlkPSJhIiB4MT0iNS4zMyIgeTE9IjIuODEiIHgyPSI4Ljc0IiB5Mj0iNi4yMiIgZ3JhZGllbnRUcmFuc2Zvcm09InJvdGF0ZSgtLjA4IC05ODAuMTc1IC0xNDU0LjU2NSkiIGdyYWRpZW50VW5pdHM9InVzZXJTcGFjZU9uVXNlIj48c3RvcCBvZmZzZXQ9IjAiIHN0b3AtY29sb3I9IiM4NmQ2MzMiLz48c3RvcCBvZmZzZXQ9IjEiIHN0b3AtY29sb3I9IiM1ZTk2MjQiLz48L2xpbmVhckdyYWRpZW50PjxsaW5lYXJHcmFkaWVudCBpZD0iYiIgeDE9IjExLjg0IiB5MT0iMTQuNTQiIHgyPSIxNS4yNCIgeTI9IjE3Ljk1IiBncmFkaWVudFVuaXRzPSJ1c2VyU3BhY2VPblVzZSI+PHN0b3Agb2Zmc2V0PSIwIiBzdG9wLWNvbG9yPSIjODZkNjMzIi8+PHN0b3Agb2Zmc2V0PSIxIiBzdG9wLWNvbG9yPSIjNWU5NjI0Ii8+PC9saW5lYXJHcmFkaWVudD48bGluZWFyR3JhZGllbnQgaWQ9ImMiIHgxPSItMS4zNCIgeTE9IjE0LjUzIiB4Mj0iMi4wNiIgeTI9IjE3LjkzIiBncmFkaWVudFVuaXRzPSJ1c2VyU3BhY2VPblVzZSI+PHN0b3Agb2Zmc2V0PSIwIiBzdG9wLWNvbG9yPSIjODZkNjMzIi8+PHN0b3Agb2Zmc2V0PSIxIiBzdG9wLWNvbG9yPSIjNWU5NjI0Ii8+PC9saW5lYXJHcmFkaWVudD48L2RlZnM+PHBhdGggZmlsbD0iI2E2N2FmNCIgZD0iTTcuMjUgNC4zNTZsMS43MTUuOTktNC43NSA4LjIyNy0xLjcxNS0uOTl6TTguOTczIDUuNWwxLjcxNS0uOTkgNC43NSA4LjIyNy0xLjcxNS45OXoiLz48cGF0aCBmaWxsPSIjNzczYWRjIiBkPSJNMTMuNjQgMTMuNzJ2MS45OGgtOS41di0xLjk4eiIvPjxjaXJjbGUgY3g9IjkuMDciIGN5PSIzLjE0IiByPSIyLjQxIiBmaWxsPSJ1cmwoI2EpIi8+PGNpcmNsZSBjeD0iMTUuNTkiIGN5PSIxNC44NiIgcj0iMi40MSIgZmlsbD0idXJsKCNiKSIvPjxjaXJjbGUgY3g9IjIuNDEiIGN5PSIxNC44NiIgcj0iMi40MSIgZmlsbD0idXJsKCNjKSIvPjwvc3ZnPg==" vertex="1" parent="sOccohnL0xESqHE3Cxpw-1">
          <mxGeometry x="690" y="55" width="60" height="60" as="geometry" />
        </mxCell>
        <mxCell id="sOccohnL0xESqHE3Cxpw-9" value="" style="shape=image;verticalLabelPosition=bottom;verticalAlign=top;imageAspect=0;aspect=fixed;image=data:image/svg+xml,PHN2ZyB4bWxucz0iaHR0cDovL3d3dy53My5vcmcvMjAwMC9zdmciIHZpZXdCb3g9IjAgMCAxOCAxOCI+PGRlZnM+PGxpbmVhckdyYWRpZW50IGlkPSJhIiB4MT0iLTE3NS45OTMiIHkxPSItMzQzLjcyMyIgeDI9Ii0xNzUuOTkzIiB5Mj0iLTM1OS4yMzIiIGdyYWRpZW50VHJhbnNmb3JtPSJtYXRyaXgoMS4xNTYgMCAwIDEuMDI5IDIxMi41NzMgMzcwLjU0OCkiIGdyYWRpZW50VW5pdHM9InVzZXJTcGFjZU9uVXNlIj48c3RvcCBvZmZzZXQ9IjAiIHN0b3AtY29sb3I9IiNmZWExMWIiLz48c3RvcCBvZmZzZXQ9Ii4yODQiIHN0b3AtY29sb3I9IiNmZWE1MWEiLz48c3RvcCBvZmZzZXQ9Ii41NDciIHN0b3AtY29sb3I9IiNmZWIwMTgiLz48c3RvcCBvZmZzZXQ9Ii44IiBzdG9wLWNvbG9yPSIjZmZjMzE0Ii8+PHN0b3Agb2Zmc2V0PSIxIiBzdG9wLWNvbG9yPSIjZmZkNzBmIi8+PC9saW5lYXJHcmFkaWVudD48L2RlZnM+PHBhdGggZD0iTTUuNTQgMTMuMTA1bC0uNTg2LjU4OGEuMjY3LjI2NyAwIDAxLS4zNzcgMEwuMjIzIDkuMzUzYS41MzMuNTMzIDAgMDEwLS43NTVsLjU4OC0uNTkgNC43MzIgNC43MThhLjI2Ny4yNjcgMCAwMTAgLjM3OHoiIGZpbGw9IiM1MGU2ZmYiLz48cGF0aCBkPSJNNC44NjMgNC4zMDVsLjU5LjU4OGEuMjY3LjI2NyAwIDAxMCAuMzc4TC44MDYgOS45MzJsLS41OS0uNTg5YS41MzMuNTMzIDAgMDEtLjAwMS0uNzU0bDQuMjczLTQuMjg1YS4yNjcuMjY3IDAgMDEuMzc2IDB6IiBmaWxsPSIjMTQ5MGRmIi8+PHBhdGggZD0iTTE3LjE5IDguMDEybC41ODguNTlhLjUzMy41MzMgMCAwMS0uMDAxLjc1NGwtNC4zNTQgNC4zNGEuMjY3LjI2NyAwIDAxLS4zNzcgMGwtLjU4Ni0uNTg3YS4yNjcuMjY3IDAgMDEwLS4zNzdsNC43MzItNC43MTh6IiBmaWxsPSIjNTBlNmZmIi8+PHBhdGggZD0iTTE3Ljc4MiA5LjM0bC0uNTkuNTg5LTQuNjQ4LTQuNjYyYS4yNjcuMjY3IDAgMDEwLS4zNzdsLjU5LS41ODhhLjI2Ny4yNjcgMCAwMS4zNzggMGw0LjI3MyA0LjI4NmEuNTMzLjUzMyAwIDAxMCAuNzUzeiIgZmlsbD0iIzE0OTBkZiIvPjxwYXRoIGQ9Ik04LjQ1OSA5LjlINC44N2EuMTkzLjE5MyAwIDAxLS4yLS4xODEuMTY2LjE2NiAwIDAxLjAxOC0uMDc1TDguOTkxIDEuMTNhLjIwNi4yMDYgMCAwMS4xODYtLjEwNmg0LjI0NWEuMTkzLjE5MyAwIDAxLjIuMTgxLjE2NS4xNjUgMCAwMS0uMDM1LjFMOC41MzQgNy45NjZoNC45MjhhLjE5My4xOTMgMCAwMS4yLjE4MS4xNzYuMTc2IDAgMDEtLjA1Mi4xMjJsLTguMTg5IDguNTE5Yy0uMDc3LjA0Ni0uNjI0LjUtLjM1Ni0uMTg5eiIgZmlsbD0idXJsKCNhKSIvPjwvc3ZnPg==" vertex="1" parent="sOccohnL0xESqHE3Cxpw-1">
          <mxGeometry x="440" y="360" width="50" height="50" as="geometry" />
        </mxCell>
        <mxCell id="sOccohnL0xESqHE3Cxpw-10" value="" style="shape=image;verticalLabelPosition=bottom;verticalAlign=top;imageAspect=0;aspect=fixed;image=data:image/svg+xml,PHN2ZyB4bWxucz0iaHR0cDovL3d3dy53My5vcmcvMjAwMC9zdmciIHZpZXdCb3g9IjAgMCAxOCAxOCI+PGRlZnM+PGxpbmVhckdyYWRpZW50IGlkPSJhIiB4MT0iMTAuNzkiIHkxPSIyLjE3IiB4Mj0iMTAuNzkiIHkyPSIxNi41NiIgZ3JhZGllbnRVbml0cz0idXNlclNwYWNlT25Vc2UiPjxzdG9wIG9mZnNldD0iLjE4IiBzdG9wLWNvbG9yPSIjNWVhMGVmIi8+PHN0b3Agb2Zmc2V0PSIxIiBzdG9wLWNvbG9yPSIjMDA3OGQ0Ii8+PC9saW5lYXJHcmFkaWVudD48L2RlZnM+PHJlY3QgeD0iMy43IiB5PSI1LjQ5IiB3aWR0aD0iMS4xOCIgaGVpZ2h0PSI1LjI2IiByeD0iLjUyIiB0cmFuc2Zvcm09InJvdGF0ZSgtOTAgNC4yOSA4LjEyKSIgZmlsbD0iI2IzYjNiMyIvPjxyZWN0IHg9IjIuMDQiIHk9IjcuODgiIHdpZHRoPSIxLjE4IiBoZWlnaHQ9IjUuMjYiIHJ4PSIuNTIiIHRyYW5zZm9ybT0icm90YXRlKC05MCAyLjYzIDEwLjUxKSIgZmlsbD0iI2EzYTNhMyIvPjxyZWN0IHg9IjMuNyIgeT0iMTAuMjYiIHdpZHRoPSIxLjE4IiBoZWlnaHQ9IjUuMjYiIHJ4PSIuNTIiIHRyYW5zZm9ybT0icm90YXRlKC05MCA0LjI5NSAxMi44OTUpIiBmaWxsPSIjN2E3YTdhIi8+PHBhdGggZD0iTTE4IDExYTMuMjggMy4yOCAwIDAwLTIuODEtMy4xOCA0LjEzIDQuMTMgMCAwMC00LjIxLTQgNC4yMyA0LjIzIDAgMDAtNCAyLjggMy44OSAzLjg5IDAgMDAtMy4zOCAzLjggNCA0IDAgMDA0LjA2IDMuODZoNy4xMUEzLjMyIDMuMzIgMCAwMDE4IDExeiIgZmlsbD0idXJsKCNhKSIvPjwvc3ZnPg==" vertex="1" parent="sOccohnL0xESqHE3Cxpw-1">
          <mxGeometry x="255" y="526" width="100" height="100" as="geometry" />
        </mxCell>
        <mxCell id="sOccohnL0xESqHE3Cxpw-11" value="" style="endArrow=classic;html=1;fillColor=#f8cecc;rounded=1;strokeColor=#007FFF;strokeWidth=3;entryX=1;entryY=0.5;entryDx=0;entryDy=0;exitX=0;exitY=0.5;exitDx=0;exitDy=0;" edge="1" parent="sOccohnL0xESqHE3Cxpw-1" source="sOccohnL0xESqHE3Cxpw-8" target="sOccohnL0xESqHE3Cxpw-6">
          <mxGeometry width="50" height="50" relative="1" as="geometry">
            <mxPoint x="610" y="220" as="sourcePoint" />
            <mxPoint x="660" y="170" as="targetPoint" />
          </mxGeometry>
        </mxCell>
        <mxCell id="sOccohnL0xESqHE3Cxpw-12" value="" style="endArrow=classic;html=1;strokeColor=#007FFF;strokeWidth=3;entryX=0.5;entryY=0;entryDx=0;entryDy=0;" edge="1" parent="sOccohnL0xESqHE3Cxpw-1" source="sOccohnL0xESqHE3Cxpw-2" target="sOccohnL0xESqHE3Cxpw-9">
          <mxGeometry width="50" height="50" relative="1" as="geometry">
            <mxPoint x="465" y="260" as="sourcePoint" />
            <mxPoint x="464.5" y="320" as="targetPoint" />
          </mxGeometry>
        </mxCell>
        <mxCell id="sOccohnL0xESqHE3Cxpw-13" value="" style="endArrow=classic;html=1;fillColor=#f8cecc;rounded=1;strokeColor=#007FFF;strokeWidth=3;entryX=1;entryY=0.5;entryDx=0;entryDy=0;" edge="1" parent="sOccohnL0xESqHE3Cxpw-1" target="sOccohnL0xESqHE3Cxpw-7">
          <mxGeometry width="50" height="50" relative="1" as="geometry">
            <mxPoint x="440" y="385" as="sourcePoint" />
            <mxPoint x="340" y="384.5" as="targetPoint" />
          </mxGeometry>
        </mxCell>
        <mxCell id="sOccohnL0xESqHE3Cxpw-14" value="Contentful Webhook Endpoint" style="text;html=1;strokeColor=none;fillColor=none;align=center;verticalAlign=middle;whiteSpace=wrap;rounded=0;" vertex="1" parent="sOccohnL0xESqHE3Cxpw-1">
          <mxGeometry x="550" y="100" width="80" height="45" as="geometry" />
        </mxCell>
        <mxCell id="sOccohnL0xESqHE3Cxpw-15" value="Contentful" style="text;html=1;strokeColor=none;fillColor=none;align=center;verticalAlign=middle;whiteSpace=wrap;rounded=0;" vertex="1" parent="sOccohnL0xESqHE3Cxpw-1">
          <mxGeometry x="700" y="125" width="40" height="20" as="geometry" />
        </mxCell>
        <mxCell id="sOccohnL0xESqHE3Cxpw-16" value="" style="endArrow=classic;html=1;fillColor=#f8cecc;rounded=1;strokeColor=#007FFF;strokeWidth=3;entryX=0.5;entryY=0;entryDx=0;entryDy=0;exitX=0.5;exitY=1;exitDx=0;exitDy=0;" edge="1" parent="sOccohnL0xESqHE3Cxpw-1" source="sOccohnL0xESqHE3Cxpw-6" target="sOccohnL0xESqHE3Cxpw-2">
          <mxGeometry width="50" height="50" relative="1" as="geometry">
            <mxPoint x="440" y="170" as="sourcePoint" />
            <mxPoint x="240" y="170" as="targetPoint" />
          </mxGeometry>
        </mxCell>
        <mxCell id="sOccohnL0xESqHE3Cxpw-17" value="Service Bus" style="text;html=1;strokeColor=none;fillColor=none;align=center;verticalAlign=middle;whiteSpace=wrap;rounded=0;" vertex="1" parent="sOccohnL0xESqHE3Cxpw-1">
          <mxGeometry x="510" y="240" width="40" height="20" as="geometry" />
        </mxCell>
        <mxCell id="sOccohnL0xESqHE3Cxpw-18" value="Function to Reset Cache and Add Search Feature" style="text;html=1;strokeColor=none;fillColor=none;align=center;verticalAlign=middle;whiteSpace=wrap;rounded=0;" vertex="1" parent="sOccohnL0xESqHE3Cxpw-1">
          <mxGeometry x="500" y="375" width="90" height="20" as="geometry" />
        </mxCell>
        <mxCell id="sOccohnL0xESqHE3Cxpw-19" value="Content Service" style="text;html=1;strokeColor=none;fillColor=none;align=center;verticalAlign=middle;whiteSpace=wrap;rounded=0;" vertex="1" parent="sOccohnL0xESqHE3Cxpw-1">
          <mxGeometry x="85" y="440" width="40" height="20" as="geometry" />
        </mxCell>
        <mxCell id="sOccohnL0xESqHE3Cxpw-20" value="Redis Cache" style="text;html=1;strokeColor=none;fillColor=none;align=center;verticalAlign=middle;whiteSpace=wrap;rounded=0;" vertex="1" parent="sOccohnL0xESqHE3Cxpw-1">
          <mxGeometry x="290" y="330" width="40" height="20" as="geometry" />
        </mxCell>
        <mxCell id="sOccohnL0xESqHE3Cxpw-21" value="Contentful" style="text;html=1;strokeColor=none;fillColor=none;align=center;verticalAlign=middle;whiteSpace=wrap;rounded=0;" vertex="1" parent="sOccohnL0xESqHE3Cxpw-1">
          <mxGeometry x="285" y="626" width="40" height="20" as="geometry" />
        </mxCell>
        <mxCell id="sOccohnL0xESqHE3Cxpw-22" value="" style="shape=image;verticalLabelPosition=bottom;verticalAlign=top;imageAspect=0;aspect=fixed;image=data:image/svg+xml,PHN2ZyB4bWxucz0iaHR0cDovL3d3dy53My5vcmcvMjAwMC9zdmciIHZpZXdCb3g9IjAgMCAxOCAxOCI+PGRlZnM+PGxpbmVhckdyYWRpZW50IGlkPSJhIiB4MT0iOSIgeTE9IjE5LjEzIiB4Mj0iOSIgeTI9Ii0uMjkiIGdyYWRpZW50VW5pdHM9InVzZXJTcGFjZU9uVXNlIj48c3RvcCBvZmZzZXQ9IjAiIHN0b3AtY29sb3I9IiMwMDc4ZDQiLz48c3RvcCBvZmZzZXQ9Ii4xNiIgc3RvcC1jb2xvcj0iIzEzODBkYSIvPjxzdG9wIG9mZnNldD0iLjUzIiBzdG9wLWNvbG9yPSIjM2M5MWU1Ii8+PHN0b3Agb2Zmc2V0PSIuODIiIHN0b3AtY29sb3I9IiM1NTljZWMiLz48c3RvcCBvZmZzZXQ9IjEiIHN0b3AtY29sb3I9IiM1ZWEwZWYiLz48L2xpbmVhckdyYWRpZW50PjwvZGVmcz48cGF0aCBkPSJNMTggMTEuMzhhNCA0IDAgMDAtMy41MS0zLjg4IDUuMSA1LjEgMCAwMC01LjI1LTQuODhBNS4yNSA1LjI1IDAgMDA0LjIyIDYgNC44IDQuOCAwIDAwMCAxMC42N2E0LjkgNC45IDAgMDA1LjA3IDQuNzFoOC42NWEuNzguNzggMCAwMC4yMiAwIDQuMSA0LjEgMCAwMDQuMDYtNHoiIGZpbGw9InVybCgjYSkiLz48cGF0aCBkPSJNNS40MiAxMC4zOWgtLjg4YTEuMDkgMS4wOSAwIDEwMCAuNDloLjg4YS4yLjIgMCAwMS4yLjJ2NC4zaC40OXYtNC4zYS42OS42OSAwIDAwLS42OS0uNjl6bS0xLjk1Ljg4YS42NC42NCAwIDExLjY0LS42NC42NC42NCAwIDAxLS42NC42NHoiIGZpbGw9IiM5Y2ViZmYiLz48cGF0aCBkPSJNOC45NCAxMC42MXYtMWEuNy43IDAgMDAtLjctLjdINi42OWEuMi4yIDAgMDEtLjItLjJWMy40bC0uMjMuMTItLjI2LjE0djVhLjY5LjY5IDAgMDAuNjkuNjloMS41NWEuMjEuMjEgMCAwMS4yMS4yMXYxYTEuMDggMS4wOCAwIDAwLS44NSAxLjA2IDEuMDkgMS4wOSAwIDEwMS4zNC0xLjA2em0tLjI1IDEuN2EuNjQuNjQgMCAxMS42NC0uNjQuNjQuNjQgMCAwMS0uNjQuNjR6IiBmaWxsPSIjZjJmMmYyIi8+PHBhdGggZD0iTTE0LjUzIDguNWExLjA5IDEuMDkgMCAwMC0uMjUgMi4xNXYuMmEuMjEuMjEgMCAwMS0uMjEuMjFoLTJWNy41NGEuNjkuNjkgMCAwMC0uNjktLjY5aC0xLjAzQTEuMDggMS4wOCAwIDAwOS4yOSA2YTEuMDkgMS4wOSAwIDEwMS4wNiAxLjM0aDEuMDdhLjIuMiAwIDAxLjIuMnY3Ljg0aC40OXYtMy44M2gyYS43LjcgMCAwMC43LS43di0uMmExLjA5IDEuMDkgMCAwMC44NS0xLjA2IDEuMDkgMS4wOSAwIDAwLTEuMTMtMS4wOXptLTUuMjQtLjc3YS42NC42NCAwIDExLjY0LS42NC42NC42NCAwIDAxLS42NC42NHptNS4yNCAyLjVhLjY0LjY0IDAgMTEuNjMtLjY0LjY0LjY0IDAgMDEtLjYzLjY0eiIgZmlsbD0iIzljZWJmZiIvPjwvc3ZnPg==" vertex="1" parent="sOccohnL0xESqHE3Cxpw-1">
          <mxGeometry x="276" y="67" width="58" height="58" as="geometry" />
        </mxCell>
        <mxCell id="sOccohnL0xESqHE3Cxpw-23" value="" style="shape=image;verticalLabelPosition=bottom;verticalAlign=top;imageAspect=0;aspect=fixed;image=data:image/svg+xml,PHN2ZyB4bWxucz0iaHR0cDovL3d3dy53My5vcmcvMjAwMC9zdmciIHZpZXdCb3g9IjAgMCAxOCAxOCI+PGRlZnM+PHJhZGlhbEdyYWRpZW50IGlkPSJhIiBjeD0iLTgwLjA4IiBjeT0iLTM0LjEyMSIgcj0iNS45NTQiIGdyYWRpZW50VHJhbnNmb3JtPSJtYXRyaXgoMS4wMzYgMCAwIDEuMDI3IDkxLjkyOCA0My40MzEpIiBncmFkaWVudFVuaXRzPSJ1c2VyU3BhY2VPblVzZSI+PHN0b3Agb2Zmc2V0PSIuMTgzIiBzdG9wLWNvbG9yPSIjNWVhMGVmIi8+PHN0b3Agb2Zmc2V0PSIxIiBzdG9wLWNvbG9yPSIjMDA3OGQ0Ii8+PC9yYWRpYWxHcmFkaWVudD48Y2xpcFBhdGggaWQ9ImIiPjxwYXRoIGQ9Ik0xNC45NjkgNi45NzFhNi4xMzcgNi4xMzcgMCAxMS03LjM5NS00LjU0NCA2LjEzNiA2LjEzNiAwIDAxNy4zOTUgNC41NDR6IiBmaWxsPSJub25lIi8+PC9jbGlwUGF0aD48L2RlZnM+PHBhdGggZD0iTTIuOTU0IDQuNzA3YS4xNzYuMTc2IDAgMDEtLjE3Ni0uMTc2QTIuMDExIDIuMDExIDAgMDAuNzY5IDIuNTIyYS4xNzcuMTc3IDAgMDEtLjE3Ni0uMTc2LjE3OC4xNzggMCAwMS4xNzYtLjE3N0EyLjAxMSAyLjAxMSAwIDAwMi43NzguMTYxYS4xNzYuMTc2IDAgMDEuMTc2LS4xNzcuMTc2LjE3NiAwIDAxLjE3Ni4xNzcgMi4wMTEgMi4wMTEgMCAwMDIuMDA5IDIuMDA4LjE3Ni4xNzYgMCAwMS4xNzYuMTc3LjE3Ni4xNzYgMCAwMS0uMTc2LjE3NkEyLjAxMSAyLjAxMSAwIDAwMy4xMyA0LjUzMWEuMTc4LjE3OCAwIDAxLS4xNzYuMTc2ek0xNS42MTEgMTYuOWEuMTQxLjE0MSAwIDAxLS4xNDEtLjE0MSAxLjYwOSAxLjYwOSAwIDAwLTEuNjA3LTEuNjA3LjE0MS4xNDEgMCAwMS0uMTQxLS4xNC4xNDEuMTQxIDAgMDEuMTQxLS4xNDEgMS42MDkgMS42MDkgMCAwMDEuNjA3LTEuNjExLjE0MS4xNDEgMCAwMS4xNDEtLjE0MS4xNDEuMTQxIDAgMDEuMTQxLjE0MSAxLjYwOSAxLjYwOSAwIDAwMS42MDcgMS42MDcuMTQxLjE0MSAwIDAxMCAuMjgyIDEuNjA5IDEuNjA5IDAgMDAtMS42MDcgMS42MDcuMTQxLjE0MSAwIDAxLS4xNDEuMTQ0eiIgZmlsbD0iIzUwZTZmZiIvPjxwYXRoIGQ9Ik0xNC45NjkgNi45NzFhNi4xMzcgNi4xMzcgMCAxMS03LjM5NS00LjU0NCA2LjEzNiA2LjEzNiAwIDAxNy4zOTUgNC41NDR6IiBmaWxsPSJ1cmwoI2EpIi8+PGcgY2xpcC1wYXRoPSJ1cmwoI2IpIiBmaWxsPSIjZjJmMmYyIj48cGF0aCBkPSJNNS43MDkgMTIuNTU2YTEuNjM4IDEuNjM4IDAgMTAuMDA1LTMuMjc1IDEuMzA3IDEuMzA3IDAgMDAuMDA3LS4xMzlBMS42NTIgMS42NTIgMCAwMDQuMDYgNy41SDIuODMyYTYuMjU0IDYuMjU0IDAgMDAxLjU5NSA1LjA1MnptOS4zMzYtNS4zMDFjMC0uMDE0IDAtLjAyOS0uMDA3LS4wNDRhNS45ODcgNS45ODcgMCAwMC0xLjQwNi0yLjg4IDEuNzI0IDEuNzI0IDAgMDAtLjI4OS0uMDg5IDEuODA2IDEuODA2IDAgMDAtMi4zIDEuNjYzIDEuNzM2IDEuNzM2IDAgMDAtLjc4NSAzLjM2IDEuNDUyIDEuNDUyIDAgMDAuNTQxLjFoMi4wM2ExMy40MjUgMTMuNDI1IDAgMDAyLjIxNi0yLjExeiIvPjwvZz48cGF0aCBkPSJNMTcuMTkxIDMuMjczYy0uNjI5LTEuMDQ4LTIuMS0xLjQ1Ni00LjE1NS0xLjE0OWExNC43MzcgMTQuNzM3IDAgMDAtMi4wODIuNDUxIDYuNDk0IDYuNDk0IDAgMDExLjUyOC43NjdjLjI0MS0uMDUzLjQ4My0uMTE2LjcxNS0uMTVBNy41IDcuNSAwIDAxMTQuMyAzLjFhMi4xODggMi4xODggMCAwMTEuOTU5LjcyNWMuMzgzLjYzOC4wNiAxLjczLS44ODYgM2ExNi43MDcgMTYuNzA3IDAgMDEtNC43NDkgNC4wNTFBMTYuNzU4IDE2Ljc1OCAwIDAxNC44IDEzLjEzNWMtMS41NjQuMjM0LTIuNjgyIDAtMy4wNjUtLjYzNXMtLjA2LTEuNzMuODg2LTIuOTk1Yy4xMTctLjE1OC4xNDYtLjIzNS4yNzktLjM5MmE2LjI1MSA2LjI1MSAwIDAxLjAyNi0xLjYzIDExLjU0NSAxMS41NDUgMCAwMC0xLjE3IDEuMzc2Qy41MTcgMTAuNTE3LjE4MSAxMi4wMDcuODA5IDEzLjA1NGEzLjE2NyAzLjE2NyAwIDAwMi45IDEuMjQ4IDguNTYzIDguNTYzIDAgMDAxLjI1MS0uMSAxNy44MzkgMTcuODM5IDAgMDA2LjIxOS0yLjRBMTcuNzkzIDE3Ljc5MyAwIDAwMTYuMjQgNy40N2MxLjI0My0xLjY2IDEuNTc5LTMuMTUuOTUxLTQuMTk3eiIgZmlsbD0iIzUwZTZmZiIvPjwvc3ZnPg==" vertex="1" parent="sOccohnL0xESqHE3Cxpw-1">
          <mxGeometry x="287" y="198" width="36" height="36" as="geometry" />
        </mxCell>
        <mxCell id="sOccohnL0xESqHE3Cxpw-25" style="edgeStyle=orthogonalEdgeStyle;rounded=0;orthogonalLoop=1;jettySize=auto;html=1;exitX=0.5;exitY=1;exitDx=0;exitDy=0;entryX=0.5;entryY=0;entryDx=0;entryDy=0;" edge="1" parent="sOccohnL0xESqHE3Cxpw-1" source="sOccohnL0xESqHE3Cxpw-22" target="sOccohnL0xESqHE3Cxpw-23">
          <mxGeometry relative="1" as="geometry">
            <mxPoint x="215" y="144" as="sourcePoint" />
            <mxPoint x="355" y="144" as="targetPoint" />
          </mxGeometry>
        </mxCell>
        <mxCell id="sOccohnL0xESqHE3Cxpw-26" style="edgeStyle=orthogonalEdgeStyle;rounded=0;orthogonalLoop=1;jettySize=auto;html=1;exitX=0.5;exitY=0;exitDx=0;exitDy=0;entryX=-0.007;entryY=0.628;entryDx=0;entryDy=0;entryPerimeter=0;" edge="1" parent="sOccohnL0xESqHE3Cxpw-1" source="sOccohnL0xESqHE3Cxpw-5" target="sOccohnL0xESqHE3Cxpw-22">
          <mxGeometry relative="1" as="geometry">
            <mxPoint x="100" y="310" as="sourcePoint" />
            <mxPoint x="240" y="310" as="targetPoint" />
          </mxGeometry>
        </mxCell>
        <mxCell id="sOccohnL0xESqHE3Cxpw-29" value="When Article Slug is added or deleted, article summary with related tags will be added into Cosmos." style="text;html=1;strokeColor=none;fillColor=none;align=center;verticalAlign=middle;whiteSpace=wrap;rounded=0;" vertex="1" parent="sOccohnL0xESqHE3Cxpw-1">
          <mxGeometry x="135" y="206" width="150" height="20" as="geometry" />
        </mxCell>
        <mxCell id="sOccohnL0xESqHE3Cxpw-30" value="" style="endArrow=classic;html=1;strokeColor=#007FFF;strokeWidth=3;entryX=0.75;entryY=1;entryDx=0;entryDy=0;exitX=0;exitY=0;exitDx=0;exitDy=0;" edge="1" parent="sOccohnL0xESqHE3Cxpw-1" source="sOccohnL0xESqHE3Cxpw-9" target="sOccohnL0xESqHE3Cxpw-23">
          <mxGeometry width="50" height="50" relative="1" as="geometry">
            <mxPoint x="370" y="268" as="sourcePoint" />
            <mxPoint x="370" y="360" as="targetPoint" />
          </mxGeometry>
        </mxCell>
        <mxCell id="sOccohnL0xESqHE3Cxpw-31" value="&lt;h1&gt;&lt;div style=&quot;font-size: 18px&quot;&gt;&lt;ul&gt;&lt;li&gt;&lt;span style=&quot;font-weight: 400&quot;&gt;On Article Publish, After resetting cache, get article slug with related tags and insert into cosmos&lt;/span&gt;&lt;/li&gt;&lt;/ul&gt;&lt;span style=&quot;font-weight: normal&quot;&gt;Enhancements:&lt;/span&gt;&lt;br&gt;&lt;ul&gt;&lt;li&gt;&lt;span style=&quot;font-weight: 400&quot;&gt;Can we store article summary n serve from cosmos?&lt;/span&gt;&lt;/li&gt;&lt;/ul&gt;&lt;/div&gt;&lt;/h1&gt;&lt;p&gt;&lt;/p&gt;" style="text;html=1;strokeColor=none;fillColor=none;spacing=5;spacingTop=-20;whiteSpace=wrap;overflow=hidden;rounded=0;" vertex="1" parent="sOccohnL0xESqHE3Cxpw-1">
          <mxGeometry x="510" y="480" width="320" height="220" as="geometry" />
        </mxCell>
      </root>
    </mxGraphModel>
  </diagram>
</mxfile>
